<?xml version="1.0" standalone="no"?>
<!DOCTYPE svg PUBLIC "-//W3C//DTD SVG 1.1//EN" "http://www.w3.org/Graphics/SVG/1.1/DTD/svg11.dtd">
<svg version="1.1" width="1200" height="342" onload="init(evt)" viewBox="0 0 1200 342" xmlns="http://www.w3.org/2000/svg" xmlns:xlink="http://www.w3.org/1999/xlink">
<!-- Flame graph stack visualization. See https://github.com/brendangregg/FlameGraph for latest version, and http://www.brendangregg.com/flamegraphs.html for examples. -->
<!-- NOTES:  -->
<defs>
	<linearGradient id="background" y1="0" y2="1" x1="0" x2="0" >
		<stop stop-color="#eeeeee" offset="5%" />
		<stop stop-color="#eeeeb0" offset="95%" />
	</linearGradient>
</defs>
<style type="text/css">
	text { font-family:Verdana; font-size:12px; fill:rgb(0,0,0); }
	#search, #ignorecase { opacity:0.1; cursor:pointer; }
	#search:hover, #search.show, #ignorecase:hover, #ignorecase.show { opacity:1; }
	#subtitle { text-anchor:middle; font-color:rgb(160,160,160); }
	#title { text-anchor:middle; font-size:17px}
	#unzoom { cursor:pointer; }
	#frames > *:hover { stroke:black; stroke-width:0.5; cursor:pointer; }
	.hide { display:none; }
	.parent { opacity:0.5; }
</style>
<script type="text/ecmascript">
<![CDATA[
	"use strict";
	var details, searchbtn, unzoombtn, matchedtxt, svg, searching, currentSearchTerm, ignorecase, ignorecaseBtn;
	function init(evt) {
		details = document.getElementById("details").firstChild;
		searchbtn = document.getElementById("search");
		ignorecaseBtn = document.getElementById("ignorecase");
		unzoombtn = document.getElementById("unzoom");
		matchedtxt = document.getElementById("matched");
		svg = document.getElementsByTagName("svg")[0];
		searching = 0;
		currentSearchTerm = null;
	}

	window.addEventListener("click", function(e) {
		var target = find_group(e.target);
		if (target) {
			if (target.nodeName == "a") {
				if (e.ctrlKey === false) return;
				e.preventDefault();
			}
			if (target.classList.contains("parent")) unzoom();
			zoom(target);
		}
		else if (e.target.id == "unzoom") unzoom();
		else if (e.target.id == "search") search_prompt();
		else if (e.target.id == "ignorecase") toggle_ignorecase();
	}, false)

	// mouse-over for info
	// show
	window.addEventListener("mouseover", function(e) {
		var target = find_group(e.target);
		if (target) details.nodeValue = "Function: " + g_to_text(target);
	}, false)

	// clear
	window.addEventListener("mouseout", function(e) {
		var target = find_group(e.target);
		if (target) details.nodeValue = ' ';
	}, false)

	// ctrl-F for search
	window.addEventListener("keydown",function (e) {
		if (e.keyCode === 114 || (e.ctrlKey && e.keyCode === 70)) {
			e.preventDefault();
			search_prompt();
		}
	}, false)

	// ctrl-I to toggle case-sensitive search
	window.addEventListener("keydown",function (e) {
		if (e.ctrlKey && e.keyCode === 73) {
			e.preventDefault();
			toggle_ignorecase();
		}
	}, false)

	// functions
	function find_child(node, selector) {
		var children = node.querySelectorAll(selector);
		if (children.length) return children[0];
		return;
	}
	function find_group(node) {
		var parent = node.parentElement;
		if (!parent) return;
		if (parent.id == "frames") return node;
		return find_group(parent);
	}
	function orig_save(e, attr, val) {
		if (e.attributes["_orig_" + attr] != undefined) return;
		if (e.attributes[attr] == undefined) return;
		if (val == undefined) val = e.attributes[attr].value;
		e.setAttribute("_orig_" + attr, val);
	}
	function orig_load(e, attr) {
		if (e.attributes["_orig_"+attr] == undefined) return;
		e.attributes[attr].value = e.attributes["_orig_" + attr].value;
		e.removeAttribute("_orig_"+attr);
	}
	function g_to_text(e) {
		var text = find_child(e, "title").firstChild.nodeValue;
		return (text)
	}
	function g_to_func(e) {
		var func = g_to_text(e);
		// if there's any manipulation we want to do to the function
		// name before it's searched, do it here before returning.
		return (func);
	}
	function update_text(e) {
		var r = find_child(e, "rect");
		var t = find_child(e, "text");
		var w = parseFloat(r.attributes.width.value) -3;
		var txt = find_child(e, "title").textContent.replace(/\([^(]*\)$/,"");
		t.attributes.x.value = parseFloat(r.attributes.x.value) + 3;

		// Smaller than this size won't fit anything
		if (w < 2 * 12 * 0.59) {
			t.textContent = "";
			return;
		}

		t.textContent = txt;
		// Fit in full text width
		if (/^ *$/.test(txt) || t.getSubStringLength(0, txt.length) < w)
			return;

		for (var x = txt.length - 2; x > 0; x--) {
			if (t.getSubStringLength(0, x + 2) <= w) {
				t.textContent = txt.substring(0, x) + "..";
				return;
			}
		}
		t.textContent = "";
	}

	// zoom
	function zoom_reset(e) {
		if (e.attributes != undefined) {
			orig_load(e, "x");
			orig_load(e, "width");
		}
		if (e.childNodes == undefined) return;
		for (var i = 0, c = e.childNodes; i < c.length; i++) {
			zoom_reset(c[i]);
		}
	}
	function zoom_child(e, x, ratio) {
		if (e.attributes != undefined) {
			if (e.attributes.x != undefined) {
				orig_save(e, "x");
				e.attributes.x.value = (parseFloat(e.attributes.x.value) - x - 10) * ratio + 10;
				if (e.tagName == "text")
					e.attributes.x.value = find_child(e.parentNode, "rect[x]").attributes.x.value + 3;
			}
			if (e.attributes.width != undefined) {
				orig_save(e, "width");
				e.attributes.width.value = parseFloat(e.attributes.width.value) * ratio;
			}
		}

		if (e.childNodes == undefined) return;
		for (var i = 0, c = e.childNodes; i < c.length; i++) {
			zoom_child(c[i], x - 10, ratio);
		}
	}
	function zoom_parent(e) {
		if (e.attributes) {
			if (e.attributes.x != undefined) {
				orig_save(e, "x");
				e.attributes.x.value = 10;
			}
			if (e.attributes.width != undefined) {
				orig_save(e, "width");
				e.attributes.width.value = parseInt(svg.width.baseVal.value) - (10 * 2);
			}
		}
		if (e.childNodes == undefined) return;
		for (var i = 0, c = e.childNodes; i < c.length; i++) {
			zoom_parent(c[i]);
		}
	}
	function zoom(node) {
		var attr = find_child(node, "rect").attributes;
		var width = parseFloat(attr.width.value);
		var xmin = parseFloat(attr.x.value);
		var xmax = parseFloat(xmin + width);
		var ymin = parseFloat(attr.y.value);
		var ratio = (svg.width.baseVal.value - 2 * 10) / width;

		// XXX: Workaround for JavaScript float issues (fix me)
		var fudge = 0.0001;

		unzoombtn.classList.remove("hide");

		var el = document.getElementById("frames").children;
		for (var i = 0; i < el.length; i++) {
			var e = el[i];
			var a = find_child(e, "rect").attributes;
			var ex = parseFloat(a.x.value);
			var ew = parseFloat(a.width.value);
			var upstack;
			// Is it an ancestor
			if (0 == 0) {
				upstack = parseFloat(a.y.value) > ymin;
			} else {
				upstack = parseFloat(a.y.value) < ymin;
			}
			if (upstack) {
				// Direct ancestor
				if (ex <= xmin && (ex+ew+fudge) >= xmax) {
					e.classList.add("parent");
					zoom_parent(e);
					update_text(e);
				}
				// not in current path
				else
					e.classList.add("hide");
			}
			// Children maybe
			else {
				// no common path
				if (ex < xmin || ex + fudge >= xmax) {
					e.classList.add("hide");
				}
				else {
					zoom_child(e, xmin, ratio);
					update_text(e);
				}
			}
		}
		search();
	}
	function unzoom() {
		unzoombtn.classList.add("hide");
		var el = document.getElementById("frames").children;
		for(var i = 0; i < el.length; i++) {
			el[i].classList.remove("parent");
			el[i].classList.remove("hide");
			zoom_reset(el[i]);
			update_text(el[i]);
		}
		search();
	}

	// search
	function toggle_ignorecase() {
		ignorecase = !ignorecase;
		if (ignorecase) {
			ignorecaseBtn.classList.add("show");
		} else {
			ignorecaseBtn.classList.remove("show");
		}
		reset_search();
		search();
	}
	function reset_search() {
		var el = document.querySelectorAll("#frames rect");
		for (var i = 0; i < el.length; i++) {
			orig_load(el[i], "fill")
		}
	}
	function search_prompt() {
		if (!searching) {
			var term = prompt("Enter a search term (regexp " +
			    "allowed, eg: ^ext4_)"
			    + (ignorecase ? ", ignoring case" : "")
			    + "\nPress Ctrl-i to toggle case sensitivity", "");
			if (term != null) {
				currentSearchTerm = term;
				search();
			}
		} else {
			reset_search();
			searching = 0;
			currentSearchTerm = null;
			searchbtn.classList.remove("show");
			searchbtn.firstChild.nodeValue = "Search"
			matchedtxt.classList.add("hide");
			matchedtxt.firstChild.nodeValue = ""
		}
	}
	function search(term) {
		if (currentSearchTerm === null) return;
		var term = currentSearchTerm;

		var re = new RegExp(term, ignorecase ? 'i' : '');
		var el = document.getElementById("frames").children;
		var matches = new Object();
		var maxwidth = 0;
		for (var i = 0; i < el.length; i++) {
			var e = el[i];
			var func = g_to_func(e);
			var rect = find_child(e, "rect");
			if (func == null || rect == null)
				continue;

			// Save max width. Only works as we have a root frame
			var w = parseFloat(rect.attributes.width.value);
			if (w > maxwidth)
				maxwidth = w;

			if (func.match(re)) {
				// highlight
				var x = parseFloat(rect.attributes.x.value);
				orig_save(rect, "fill");
				rect.attributes.fill.value = "rgb(230,0,230)";

				// remember matches
				if (matches[x] == undefined) {
					matches[x] = w;
				} else {
					if (w > matches[x]) {
						// overwrite with parent
						matches[x] = w;
					}
				}
				searching = 1;
			}
		}
		if (!searching)
			return;

		searchbtn.classList.add("show");
		searchbtn.firstChild.nodeValue = "Reset Search";

		// calculate percent matched, excluding vertical overlap
		var count = 0;
		var lastx = -1;
		var lastw = 0;
		var keys = Array();
		for (k in matches) {
			if (matches.hasOwnProperty(k))
				keys.push(k);
		}
		// sort the matched frames by their x location
		// ascending, then width descending
		keys.sort(function(a, b){
			return a - b;
		});
		// Step through frames saving only the biggest bottom-up frames
		// thanks to the sort order. This relies on the tree property
		// where children are always smaller than their parents.
		var fudge = 0.0001;	// JavaScript floating point
		for (var k in keys) {
			var x = parseFloat(keys[k]);
			var w = matches[keys[k]];
			if (x >= lastx + lastw - fudge) {
				count += w;
				lastx = x;
				lastw = w;
			}
		}
		// display matched percent
		matchedtxt.classList.remove("hide");
		var pct = 100 * count / maxwidth;
		if (pct != 100) pct = pct.toFixed(1)
		matchedtxt.firstChild.nodeValue = "Matched: " + pct + "%";
	}
]]>
</script>
<rect x="0.0" y="0" width="1200.0" height="342.0" fill="url(#background)"  />
<text id="title" x="600.00" y="24" >Flame Graph</text>
<text id="details" x="10.00" y="325" > </text>
<text id="unzoom" x="10.00" y="24" class="hide">Reset Zoom</text>
<text id="search" x="1090.00" y="24" >Search</text>
<text id="ignorecase" x="1174.00" y="24" >ic</text>
<text id="matched" x="1090.00" y="325" > </text>
<g id="frames">
<g >
<title>update_blocked_averages (2 samples, 2.44%)</title><rect x="1103.7" y="101" width="28.7" height="15.0" fill="rgb(234,105,17)" rx="2" ry="2" />
<text  x="1106.66" y="111.5" >up..</text>
</g>
<g >
<title>native_sched_clock (1 samples, 1.22%)</title><rect x="700.7" y="37" width="14.4" height="15.0" fill="rgb(216,126,39)" rx="2" ry="2" />
<text  x="703.73" y="47.5" ></text>
</g>
<g >
<title>exit_to_usermode_loop (2 samples, 2.44%)</title><rect x="269.0" y="213" width="28.8" height="15.0" fill="rgb(205,223,43)" rx="2" ry="2" />
<text  x="272.02" y="223.5" >ex..</text>
</g>
<g >
<title>[unknown] (1 samples, 1.22%)</title><rect x="1175.6" y="213" width="14.4" height="15.0" fill="rgb(237,6,19)" rx="2" ry="2" />
<text  x="1178.61" y="223.5" ></text>
</g>
<g >
<title>__task_pid_nr_ns (1 samples, 1.22%)</title><rect x="341.0" y="197" width="14.4" height="15.0" fill="rgb(231,193,39)" rx="2" ry="2" />
<text  x="343.98" y="207.5" ></text>
</g>
<g >
<title>get_unused_fd_flags (1 samples, 1.22%)</title><rect x="542.4" y="181" width="14.4" height="15.0" fill="rgb(236,112,47)" rx="2" ry="2" />
<text  x="545.44" y="191.5" ></text>
</g>
<g >
<title>put_dec (1 samples, 1.22%)</title><rect x="225.9" y="53" width="14.3" height="15.0" fill="rgb(223,67,1)" rx="2" ry="2" />
<text  x="228.85" y="63.5" ></text>
</g>
<g >
<title>ep_poll (38 samples, 46.34%)</title><rect x="585.6" y="197" width="546.8" height="15.0" fill="rgb(224,92,53)" rx="2" ry="2" />
<text  x="588.61" y="207.5" >ep_poll</text>
</g>
<g >
<title>__sched_text_start (37 samples, 45.12%)</title><rect x="600.0" y="133" width="532.4" height="15.0" fill="rgb(240,146,22)" rx="2" ry="2" />
<text  x="603.00" y="143.5" >__sched_text_start</text>
</g>
<g >
<title>sys_read (14 samples, 17.07%)</title><rect x="53.2" y="197" width="201.4" height="15.0" fill="rgb(228,133,31)" rx="2" ry="2" />
<text  x="56.17" y="207.5" >sys_read</text>
</g>
<g >
<title>dequeue_entity (2 samples, 2.44%)</title><rect x="600.0" y="85" width="28.8" height="15.0" fill="rgb(217,181,15)" rx="2" ry="2" />
<text  x="603.00" y="95.5" >de..</text>
</g>
<g >
<title>entry_SYSCALL_64_after_hwframe (14 samples, 17.07%)</title><rect x="369.8" y="245" width="201.4" height="15.0" fill="rgb(237,116,21)" rx="2" ry="2" />
<text  x="372.76" y="255.5" >entry_SYSCALL_64_after_hwf..</text>
</g>
<g >
<title>apparmor_file_open (1 samples, 1.22%)</title><rect x="528.0" y="117" width="14.4" height="15.0" fill="rgb(225,49,18)" rx="2" ry="2" />
<text  x="531.05" y="127.5" ></text>
</g>
<g >
<title>put_dec_trunc8 (1 samples, 1.22%)</title><rect x="225.9" y="37" width="14.3" height="15.0" fill="rgb(241,221,15)" rx="2" ry="2" />
<text  x="228.85" y="47.5" ></text>
</g>
<g >
<title>do_task_stat (13 samples, 15.85%)</title><rect x="53.2" y="101" width="187.0" height="15.0" fill="rgb(225,138,1)" rx="2" ry="2" />
<text  x="56.17" y="111.5" >do_task_stat</text>
</g>
<g >
<title>do_syscall_64 (14 samples, 17.07%)</title><rect x="53.2" y="213" width="201.4" height="15.0" fill="rgb(216,123,52)" rx="2" ry="2" />
<text  x="56.17" y="223.5" >do_syscall_64</text>
</g>
<g >
<title>redis-server (82 samples, 100.00%)</title><rect x="10.0" y="277" width="1180.0" height="15.0" fill="rgb(225,214,8)" rx="2" ry="2" />
<text  x="13.00" y="287.5" >redis-server</text>
</g>
<g >
<title>do_syscall_64 (39 samples, 47.56%)</title><rect x="571.2" y="229" width="561.2" height="15.0" fill="rgb(251,188,8)" rx="2" ry="2" />
<text  x="574.22" y="239.5" >do_syscall_64</text>
</g>
<g >
<title>x86_pmu_enable (25 samples, 30.49%)</title><rect x="643.2" y="85" width="359.7" height="15.0" fill="rgb(245,79,43)" rx="2" ry="2" />
<text  x="646.17" y="95.5" >x86_pmu_enable</text>
</g>
<g >
<title>do_syscall_64 (2 samples, 2.44%)</title><rect x="269.0" y="229" width="28.8" height="15.0" fill="rgb(247,46,44)" rx="2" ry="2" />
<text  x="272.02" y="239.5" >do..</text>
</g>
<g >
<title>intel_pmu_enable_all (25 samples, 30.49%)</title><rect x="643.2" y="69" width="359.7" height="15.0" fill="rgb(245,142,47)" rx="2" ry="2" />
<text  x="646.17" y="79.5" >intel_pmu_enable_all</text>
</g>
<g >
<title>finish_task_switch (26 samples, 31.71%)</title><rect x="628.8" y="117" width="374.1" height="15.0" fill="rgb(205,174,14)" rx="2" ry="2" />
<text  x="631.78" y="127.5" >finish_task_switch</text>
</g>
<g >
<title>__d_lookup (1 samples, 1.22%)</title><rect x="513.7" y="133" width="14.3" height="15.0" fill="rgb(250,130,18)" rx="2" ry="2" />
<text  x="516.66" y="143.5" ></text>
</g>
<g >
<title>task_work_run (2 samples, 2.44%)</title><rect x="269.0" y="197" width="28.8" height="15.0" fill="rgb(208,103,23)" rx="2" ry="2" />
<text  x="272.02" y="207.5" >ta..</text>
</g>
<g >
<title>[unknown] (2 samples, 2.44%)</title><rect x="10.0" y="245" width="28.8" height="15.0" fill="rgb(250,69,43)" rx="2" ry="2" />
<text  x="13.00" y="255.5" >[u..</text>
</g>
<g >
<title>__alloc_fd (1 samples, 1.22%)</title><rect x="542.4" y="165" width="14.4" height="15.0" fill="rgb(243,174,9)" rx="2" ry="2" />
<text  x="545.44" y="175.5" ></text>
</g>
<g >
<title>__vfs_read (14 samples, 17.07%)</title><rect x="53.2" y="165" width="201.4" height="15.0" fill="rgb(207,161,0)" rx="2" ry="2" />
<text  x="56.17" y="175.5" >__vfs_read</text>
</g>
<g >
<title>sched_clock_cpu (1 samples, 1.22%)</title><rect x="1089.3" y="101" width="14.4" height="15.0" fill="rgb(230,63,14)" rx="2" ry="2" />
<text  x="1092.27" y="111.5" ></text>
</g>
<g >
<title>all (82 samples, 100%)</title><rect x="10.0" y="293" width="1180.0" height="15.0" fill="rgb(214,126,2)" rx="2" ry="2" />
<text  x="13.00" y="303.5" ></text>
</g>
<g >
<title>[unknown] (17 samples, 20.73%)</title><rect x="10.0" y="261" width="244.6" height="15.0" fill="rgb(236,89,30)" rx="2" ry="2" />
<text  x="13.00" y="271.5" >[unknown]</text>
</g>
<g >
<title>do_dentry_open (1 samples, 1.22%)</title><rect x="528.0" y="133" width="14.4" height="15.0" fill="rgb(211,65,25)" rx="2" ry="2" />
<text  x="531.05" y="143.5" ></text>
</g>
<g >
<title>seq_put_decimal_ull (3 samples, 3.66%)</title><rect x="197.1" y="85" width="43.1" height="15.0" fill="rgb(253,2,10)" rx="2" ry="2" />
<text  x="200.07" y="95.5" >seq_..</text>
</g>
<g >
<title>__getpagesize (2 samples, 2.44%)</title><rect x="297.8" y="261" width="28.8" height="15.0" fill="rgb(224,16,28)" rx="2" ry="2" />
<text  x="300.80" y="271.5" >__..</text>
</g>
<g >
<title>entry_SYSCALL_64_after_hwframe (2 samples, 2.44%)</title><rect x="326.6" y="245" width="28.8" height="15.0" fill="rgb(226,12,22)" rx="2" ry="2" />
<text  x="329.59" y="255.5" >en..</text>
</g>
<g >
<title>dput.part.26 (1 samples, 1.22%)</title><rect x="269.0" y="133" width="14.4" height="15.0" fill="rgb(223,192,44)" rx="2" ry="2" />
<text  x="272.02" y="143.5" ></text>
</g>
<g >
<title>__intel_pmu_enable_all.constprop.23 (25 samples, 30.49%)</title><rect x="643.2" y="53" width="359.7" height="15.0" fill="rgb(222,193,0)" rx="2" ry="2" />
<text  x="646.17" y="63.5" >__intel_pmu_enable_all.constprop.23</text>
</g>
<g >
<title>__perf_event_task_sched_in (25 samples, 30.49%)</title><rect x="643.2" y="101" width="359.7" height="15.0" fill="rgb(231,215,37)" rx="2" ry="2" />
<text  x="646.17" y="111.5" >__perf_event_task_sched_in</text>
</g>
<g >
<title>memcpy_erms (3 samples, 3.66%)</title><rect x="110.7" y="85" width="43.2" height="15.0" fill="rgb(209,53,27)" rx="2" ry="2" />
<text  x="113.73" y="95.5" >memc..</text>
</g>
<g >
<title>vfs_read (14 samples, 17.07%)</title><rect x="53.2" y="181" width="201.4" height="15.0" fill="rgb(250,4,43)" rx="2" ry="2" />
<text  x="56.17" y="191.5" >vfs_read</text>
</g>
<g >
<title>__GI_____strtoll_l_internal (1 samples, 1.22%)</title><rect x="254.6" y="261" width="14.4" height="15.0" fill="rgb(252,72,11)" rx="2" ry="2" />
<text  x="257.63" y="271.5" ></text>
</g>
<g >
<title>sched_clock (1 samples, 1.22%)</title><rect x="1089.3" y="85" width="14.4" height="15.0" fill="rgb(219,175,8)" rx="2" ry="2" />
<text  x="1092.27" y="95.5" ></text>
</g>
<g >
<title>syscall_return_via_sysret (1 samples, 1.22%)</title><rect x="1132.4" y="245" width="14.4" height="15.0" fill="rgb(210,146,14)" rx="2" ry="2" />
<text  x="1135.44" y="255.5" ></text>
</g>
<g >
<title>d_revalidate.part.18 (1 samples, 1.22%)</title><rect x="484.9" y="101" width="14.4" height="15.0" fill="rgb(207,149,10)" rx="2" ry="2" />
<text  x="487.88" y="111.5" ></text>
</g>
<g >
<title>getname (1 samples, 1.22%)</title><rect x="556.8" y="197" width="14.4" height="15.0" fill="rgb(206,50,10)" rx="2" ry="2" />
<text  x="559.83" y="207.5" ></text>
</g>
<g >
<title>__vdso_gettimeofday (1 samples, 1.22%)</title><rect x="24.4" y="213" width="14.4" height="15.0" fill="rgb(254,216,51)" rx="2" ry="2" />
<text  x="27.39" y="223.5" ></text>
</g>
<g >
<title>__fput (2 samples, 2.44%)</title><rect x="269.0" y="165" width="28.8" height="15.0" fill="rgb(241,147,32)" rx="2" ry="2" />
<text  x="272.02" y="175.5" >__..</text>
</g>
<g >
<title>sched_clock (1 samples, 1.22%)</title><rect x="988.5" y="37" width="14.4" height="15.0" fill="rgb(220,53,8)" rx="2" ry="2" />
<text  x="991.54" y="47.5" ></text>
</g>
<g >
<title>native_write_msr (18 samples, 21.95%)</title><rect x="715.1" y="37" width="259.0" height="15.0" fill="rgb(210,136,0)" rx="2" ry="2" />
<text  x="718.12" y="47.5" >native_write_msr</text>
</g>
<g >
<title>pid_revalidate (1 samples, 1.22%)</title><rect x="499.3" y="117" width="14.4" height="15.0" fill="rgb(238,70,2)" rx="2" ry="2" />
<text  x="502.27" y="127.5" ></text>
</g>
<g >
<title>__intel_pmu_enable_all.constprop.23 (1 samples, 1.22%)</title><rect x="643.2" y="37" width="14.4" height="15.0" fill="rgb(224,19,48)" rx="2" ry="2" />
<text  x="646.17" y="47.5" ></text>
</g>
<g >
<title>vsnprintf (1 samples, 1.22%)</title><rect x="168.3" y="53" width="14.4" height="15.0" fill="rgb(230,101,13)" rx="2" ry="2" />
<text  x="171.29" y="63.5" ></text>
</g>
<g >
<title>__follow_mount_rcu.isra.27 (1 samples, 1.22%)</title><rect x="470.5" y="101" width="14.4" height="15.0" fill="rgb(213,226,10)" rx="2" ry="2" />
<text  x="473.49" y="111.5" ></text>
</g>
<g >
<title>schedule (37 samples, 45.12%)</title><rect x="600.0" y="149" width="532.4" height="15.0" fill="rgb(219,165,23)" rx="2" ry="2" />
<text  x="603.00" y="159.5" >schedule</text>
</g>
<g >
<title>lookup_fast (1 samples, 1.22%)</title><rect x="513.7" y="149" width="14.3" height="15.0" fill="rgb(247,95,11)" rx="2" ry="2" />
<text  x="516.66" y="159.5" ></text>
</g>
<g >
<title>updateCachedTime (1 samples, 1.22%)</title><rect x="1175.6" y="261" width="14.4" height="15.0" fill="rgb(228,219,20)" rx="2" ry="2" />
<text  x="1178.61" y="271.5" ></text>
</g>
<g >
<title>get_empty_filp (2 samples, 2.44%)</title><rect x="384.1" y="149" width="28.8" height="15.0" fill="rgb(227,177,10)" rx="2" ry="2" />
<text  x="387.15" y="159.5" >ge..</text>
</g>
<g >
<title>path_openat (12 samples, 14.63%)</title><rect x="369.8" y="165" width="172.6" height="15.0" fill="rgb(243,75,36)" rx="2" ry="2" />
<text  x="372.76" y="175.5" >path_openat</text>
</g>
<g >
<title>__getpid (2 samples, 2.44%)</title><rect x="326.6" y="261" width="28.8" height="15.0" fill="rgb(246,3,19)" rx="2" ry="2" />
<text  x="329.59" y="271.5" >__..</text>
</g>
<g >
<title>do_syscall_64 (2 samples, 2.44%)</title><rect x="326.6" y="229" width="28.8" height="15.0" fill="rgb(246,36,5)" rx="2" ry="2" />
<text  x="329.59" y="239.5" >do..</text>
</g>
<g >
<title>__vdso_gettimeofday (1 samples, 1.22%)</title><rect x="1175.6" y="229" width="14.4" height="15.0" fill="rgb(209,83,48)" rx="2" ry="2" />
<text  x="1178.61" y="239.5" ></text>
</g>
<g >
<title>sys_getpid (1 samples, 1.22%)</title><rect x="341.0" y="213" width="14.4" height="15.0" fill="rgb(242,193,19)" rx="2" ry="2" />
<text  x="343.98" y="223.5" ></text>
</g>
<g >
<title>seq_put_decimal_ll (1 samples, 1.22%)</title><rect x="182.7" y="85" width="14.4" height="15.0" fill="rgb(210,48,48)" rx="2" ry="2" />
<text  x="185.68" y="95.5" ></text>
</g>
<g >
<title>native_sched_clock (1 samples, 1.22%)</title><rect x="1089.3" y="69" width="14.4" height="15.0" fill="rgb(235,62,27)" rx="2" ry="2" />
<text  x="1092.27" y="79.5" ></text>
</g>
<g >
<title>dequeue_task_fair (2 samples, 2.44%)</title><rect x="600.0" y="101" width="28.8" height="15.0" fill="rgb(212,143,20)" rx="2" ry="2" />
<text  x="603.00" y="111.5" >de..</text>
</g>
<g >
<title>seq_put_decimal_ull (1 samples, 1.22%)</title><rect x="240.2" y="101" width="14.4" height="15.0" fill="rgb(240,221,41)" rx="2" ry="2" />
<text  x="243.24" y="111.5" ></text>
</g>
<g >
<title>inode_permission (2 samples, 2.44%)</title><rect x="412.9" y="133" width="28.8" height="15.0" fill="rgb(213,70,50)" rx="2" ry="2" />
<text  x="415.93" y="143.5" >in..</text>
</g>
<g >
<title>intel_pmu_handle_irq (1 samples, 1.22%)</title><rect x="672.0" y="37" width="14.3" height="15.0" fill="rgb(215,216,12)" rx="2" ry="2" />
<text  x="674.95" y="47.5" ></text>
</g>
<g >
<title>entry_SYSCALL_64_after_hwframe (2 samples, 2.44%)</title><rect x="269.0" y="245" width="28.8" height="15.0" fill="rgb(211,111,20)" rx="2" ry="2" />
<text  x="272.02" y="255.5" >en..</text>
</g>
<g >
<title>__libc_read (15 samples, 18.29%)</title><rect x="38.8" y="245" width="215.8" height="15.0" fill="rgb(254,32,35)" rx="2" ry="2" />
<text  x="41.78" y="255.5" >__libc_read</text>
</g>
<g >
<title>update_load_avg (2 samples, 2.44%)</title><rect x="600.0" y="69" width="28.8" height="15.0" fill="rgb(244,69,9)" rx="2" ry="2" />
<text  x="603.00" y="79.5" >up..</text>
</g>
<g >
<title>memcpy_erms (1 samples, 1.22%)</title><rect x="153.9" y="53" width="14.4" height="15.0" fill="rgb(228,126,53)" rx="2" ry="2" />
<text  x="156.90" y="63.5" ></text>
</g>
<g >
<title>_raw_spin_lock (1 samples, 1.22%)</title><rect x="82.0" y="69" width="14.3" height="15.0" fill="rgb(211,11,15)" rx="2" ry="2" />
<text  x="84.95" y="79.5" ></text>
</g>
<g >
<title>do_filp_open (12 samples, 14.63%)</title><rect x="369.8" y="181" width="172.6" height="15.0" fill="rgb(206,139,41)" rx="2" ry="2" />
<text  x="372.76" y="191.5" >do_filp_open</text>
</g>
<g >
<title>seq_vprintf (2 samples, 2.44%)</title><rect x="153.9" y="69" width="28.8" height="15.0" fill="rgb(228,154,7)" rx="2" ry="2" />
<text  x="156.90" y="79.5" >se..</text>
</g>
<g >
<title>proc_single_show (14 samples, 17.07%)</title><rect x="53.2" y="133" width="201.4" height="15.0" fill="rgb(209,116,30)" rx="2" ry="2" />
<text  x="56.17" y="143.5" >proc_single_show</text>
</g>
<g >
<title>num_to_str (2 samples, 2.44%)</title><rect x="211.5" y="69" width="28.7" height="15.0" fill="rgb(220,68,11)" rx="2" ry="2" />
<text  x="214.46" y="79.5" >nu..</text>
</g>
<g >
<title>load_balance (6 samples, 7.32%)</title><rect x="1002.9" y="101" width="86.4" height="15.0" fill="rgb(212,206,26)" rx="2" ry="2" />
<text  x="1005.93" y="111.5" >load_balance</text>
</g>
<g >
<title>num_to_str (1 samples, 1.22%)</title><rect x="182.7" y="69" width="14.4" height="15.0" fill="rgb(219,7,47)" rx="2" ry="2" />
<text  x="185.68" y="79.5" ></text>
</g>
<g >
<title>aeProcessEvents (2 samples, 2.44%)</title><rect x="10.0" y="229" width="28.8" height="15.0" fill="rgb(225,5,50)" rx="2" ry="2" />
<text  x="13.00" y="239.5" >ae..</text>
</g>
<g >
<title>seq_printf (2 samples, 2.44%)</title><rect x="153.9" y="85" width="28.8" height="15.0" fill="rgb(223,174,1)" rx="2" ry="2" />
<text  x="156.90" y="95.5" >se..</text>
</g>
<g >
<title>vfs_open (1 samples, 1.22%)</title><rect x="528.0" y="149" width="14.4" height="15.0" fill="rgb(215,77,45)" rx="2" ry="2" />
<text  x="531.05" y="159.5" ></text>
</g>
<g >
<title>epoll_wait (40 samples, 48.78%)</title><rect x="571.2" y="261" width="575.6" height="15.0" fill="rgb(218,104,18)" rx="2" ry="2" />
<text  x="574.22" y="271.5" >epoll_wait</text>
</g>
<g >
<title>____fput (2 samples, 2.44%)</title><rect x="269.0" y="181" width="28.8" height="15.0" fill="rgb(239,37,27)" rx="2" ry="2" />
<text  x="272.02" y="191.5" >__..</text>
</g>
<g >
<title>__close (2 samples, 2.44%)</title><rect x="269.0" y="261" width="28.8" height="15.0" fill="rgb(216,124,42)" rx="2" ry="2" />
<text  x="272.02" y="271.5" >__..</text>
</g>
<g >
<title>single_release (1 samples, 1.22%)</title><rect x="283.4" y="149" width="14.4" height="15.0" fill="rgb(205,214,17)" rx="2" ry="2" />
<text  x="286.41" y="159.5" ></text>
</g>
<g >
<title>proc_tgid_stat (14 samples, 17.07%)</title><rect x="53.2" y="117" width="201.4" height="15.0" fill="rgb(212,57,23)" rx="2" ry="2" />
<text  x="56.17" y="127.5" >proc_tgid_stat</text>
</g>
<g >
<title>deactivate_task (2 samples, 2.44%)</title><rect x="600.0" y="117" width="28.8" height="15.0" fill="rgb(236,91,23)" rx="2" ry="2" />
<text  x="603.00" y="127.5" >de..</text>
</g>
<g >
<title>lookup_fast (4 samples, 4.88%)</title><rect x="441.7" y="117" width="57.6" height="15.0" fill="rgb(244,181,3)" rx="2" ry="2" />
<text  x="444.71" y="127.5" >lookup..</text>
</g>
<g >
<title>entry_SYSCALL_64_after_hwframe (14 samples, 17.07%)</title><rect x="53.2" y="229" width="201.4" height="15.0" fill="rgb(206,39,11)" rx="2" ry="2" />
<text  x="56.17" y="239.5" >entry_SYSCALL_64_after_hwf..</text>
</g>
<g >
<title>cpumask_next_and (2 samples, 2.44%)</title><rect x="1002.9" y="85" width="28.8" height="15.0" fill="rgb(249,86,50)" rx="2" ry="2" />
<text  x="1005.93" y="95.5" >cp..</text>
</g>
<g >
<title>format_decode (1 samples, 1.22%)</title><rect x="168.3" y="37" width="14.4" height="15.0" fill="rgb(215,0,19)" rx="2" ry="2" />
<text  x="171.29" y="47.5" ></text>
</g>
<g >
<title>walk_component (5 samples, 6.10%)</title><rect x="441.7" y="133" width="72.0" height="15.0" fill="rgb(234,29,15)" rx="2" ry="2" />
<text  x="444.71" y="143.5" >walk_com..</text>
</g>
<g >
<title>serverCron (2 samples, 2.44%)</title><rect x="1146.8" y="261" width="28.8" height="15.0" fill="rgb(213,146,1)" rx="2" ry="2" />
<text  x="1149.83" y="271.5" >se..</text>
</g>
<g >
<title>find_busiest_group (4 samples, 4.88%)</title><rect x="1031.7" y="85" width="57.6" height="15.0" fill="rgb(246,226,42)" rx="2" ry="2" />
<text  x="1034.71" y="95.5" >find_b..</text>
</g>
<g >
<title>sys_epoll_wait (38 samples, 46.34%)</title><rect x="585.6" y="213" width="546.8" height="15.0" fill="rgb(211,199,52)" rx="2" ry="2" />
<text  x="588.61" y="223.5" >sys_epoll_wait</text>
</g>
<g >
<title>sys_openat (14 samples, 17.07%)</title><rect x="369.8" y="213" width="201.4" height="15.0" fill="rgb(219,208,30)" rx="2" ry="2" />
<text  x="372.76" y="223.5" >sys_openat</text>
</g>
<g >
<title>kfree (1 samples, 1.22%)</title><rect x="283.4" y="133" width="14.4" height="15.0" fill="rgb(215,217,50)" rx="2" ry="2" />
<text  x="286.41" y="143.5" ></text>
</g>
<g >
<title>entry_SYSCALL_64_after_hwframe (39 samples, 47.56%)</title><rect x="571.2" y="245" width="561.2" height="15.0" fill="rgb(208,114,17)" rx="2" ry="2" />
<text  x="574.22" y="255.5" >entry_SYSCALL_64_after_hwframe</text>
</g>
<g >
<title>__d_lookup_rcu (2 samples, 2.44%)</title><rect x="441.7" y="101" width="28.8" height="15.0" fill="rgb(219,43,26)" rx="2" ry="2" />
<text  x="444.71" y="111.5" >__..</text>
</g>
<g >
<title>native_flush_tlb_one_user (1 samples, 1.22%)</title><rect x="686.3" y="37" width="14.4" height="15.0" fill="rgb(212,132,52)" rx="2" ry="2" />
<text  x="689.34" y="47.5" ></text>
</g>
<g >
<title>rcu_nmi_exit (1 samples, 1.22%)</title><rect x="974.1" y="37" width="14.4" height="15.0" fill="rgb(213,32,0)" rx="2" ry="2" />
<text  x="977.15" y="47.5" ></text>
</g>
<g >
<title>link_path_walk (7 samples, 8.54%)</title><rect x="412.9" y="149" width="100.8" height="15.0" fill="rgb(235,9,8)" rx="2" ry="2" />
<text  x="415.93" y="159.5" >link_path_walk</text>
</g>
<g >
<title>__lookup_mnt (1 samples, 1.22%)</title><rect x="470.5" y="85" width="14.4" height="15.0" fill="rgb(254,209,26)" rx="2" ry="2" />
<text  x="473.49" y="95.5" ></text>
</g>
<g >
<title>pick_next_task_fair (9 samples, 10.98%)</title><rect x="1002.9" y="117" width="129.5" height="15.0" fill="rgb(248,126,40)" rx="2" ry="2" />
<text  x="1005.93" y="127.5" >pick_next_task_f..</text>
</g>
<g >
<title>security_task_to_inode (1 samples, 1.22%)</title><rect x="484.9" y="85" width="14.4" height="15.0" fill="rgb(208,136,48)" rx="2" ry="2" />
<text  x="487.88" y="95.5" ></text>
</g>
<g >
<title>__native_set_fixmap (1 samples, 1.22%)</title><rect x="657.6" y="37" width="14.4" height="15.0" fill="rgb(254,153,3)" rx="2" ry="2" />
<text  x="660.56" y="47.5" ></text>
</g>
<g >
<title>schedule_hrtimeout_range_clock (37 samples, 45.12%)</title><rect x="600.0" y="165" width="532.4" height="15.0" fill="rgb(229,207,54)" rx="2" ry="2" />
<text  x="603.00" y="175.5" >schedule_hrtimeout_range_clock</text>
</g>
<g >
<title>trackInstantaneousMetric (1 samples, 1.22%)</title><rect x="1175.6" y="245" width="14.4" height="15.0" fill="rgb(233,173,5)" rx="2" ry="2" />
<text  x="1178.61" y="255.5" ></text>
</g>
<g >
<title>do_syscall_64 (14 samples, 17.07%)</title><rect x="369.8" y="229" width="201.4" height="15.0" fill="rgb(205,157,9)" rx="2" ry="2" />
<text  x="372.76" y="239.5" >do_syscall_64</text>
</g>
<g >
<title>__inode_permission (2 samples, 2.44%)</title><rect x="412.9" y="117" width="28.8" height="15.0" fill="rgb(211,33,11)" rx="2" ry="2" />
<text  x="415.93" y="127.5" >__..</text>
</g>
<g >
<title>do_sys_open (13 samples, 15.85%)</title><rect x="369.8" y="197" width="187.0" height="15.0" fill="rgb(228,30,10)" rx="2" ry="2" />
<text  x="372.76" y="207.5" >do_sys_open</text>
</g>
<g >
<title>dput (1 samples, 1.22%)</title><rect x="269.0" y="149" width="14.4" height="15.0" fill="rgb(217,101,3)" rx="2" ry="2" />
<text  x="272.02" y="159.5" ></text>
</g>
<g >
<title>__open64 (15 samples, 18.29%)</title><rect x="355.4" y="261" width="215.8" height="15.0" fill="rgb(253,147,29)" rx="2" ry="2" />
<text  x="358.37" y="271.5" >__open64</text>
</g>
<g >
<title>seq_read (14 samples, 17.07%)</title><rect x="53.2" y="149" width="201.4" height="15.0" fill="rgb(228,120,16)" rx="2" ry="2" />
<text  x="56.17" y="159.5" >seq_read</text>
</g>
<g >
<title>_raw_spin_unlock_irqrestore (1 samples, 1.22%)</title><rect x="96.3" y="85" width="14.4" height="15.0" fill="rgb(210,163,42)" rx="2" ry="2" />
<text  x="99.34" y="95.5" ></text>
</g>
<g >
<title>schedule_hrtimeout_range (37 samples, 45.12%)</title><rect x="600.0" y="181" width="532.4" height="15.0" fill="rgb(239,77,35)" rx="2" ry="2" />
<text  x="603.00" y="191.5" >schedule_hrtimeout_range</text>
</g>
<g >
<title>__lock_task_sighand (1 samples, 1.22%)</title><rect x="82.0" y="85" width="14.3" height="15.0" fill="rgb(212,197,14)" rx="2" ry="2" />
<text  x="84.95" y="95.5" ></text>
</g>
</g>
</svg>
