<?xml version="1.0" standalone="no"?>
<!DOCTYPE svg PUBLIC "-//W3C//DTD SVG 1.1//EN" "http://www.w3.org/Graphics/SVG/1.1/DTD/svg11.dtd">
<svg version="1.1" width="1200" height="342" onload="init(evt)" viewBox="0 0 1200 342" xmlns="http://www.w3.org/2000/svg" xmlns:xlink="http://www.w3.org/1999/xlink">
<!-- Flame graph stack visualization. See https://github.com/brendangregg/FlameGraph for latest version, and http://www.brendangregg.com/flamegraphs.html for examples. -->
<!-- NOTES:  -->
<defs>
	<linearGradient id="background" y1="0" y2="1" x1="0" x2="0" >
		<stop stop-color="#eeeeee" offset="5%" />
		<stop stop-color="#eeeeb0" offset="95%" />
	</linearGradient>
</defs>
<style type="text/css">
	text { font-family:Verdana; font-size:12px; fill:rgb(0,0,0); }
	#search, #ignorecase { opacity:0.1; cursor:pointer; }
	#search:hover, #search.show, #ignorecase:hover, #ignorecase.show { opacity:1; }
	#subtitle { text-anchor:middle; font-color:rgb(160,160,160); }
	#title { text-anchor:middle; font-size:17px}
	#unzoom { cursor:pointer; }
	#frames > *:hover { stroke:black; stroke-width:0.5; cursor:pointer; }
	.hide { display:none; }
	.parent { opacity:0.5; }
</style>
<script type="text/ecmascript">
<![CDATA[
	"use strict";
	var details, searchbtn, unzoombtn, matchedtxt, svg, searching, currentSearchTerm, ignorecase, ignorecaseBtn;
	function init(evt) {
		details = document.getElementById("details").firstChild;
		searchbtn = document.getElementById("search");
		ignorecaseBtn = document.getElementById("ignorecase");
		unzoombtn = document.getElementById("unzoom");
		matchedtxt = document.getElementById("matched");
		svg = document.getElementsByTagName("svg")[0];
		searching = 0;
		currentSearchTerm = null;
	}

	window.addEventListener("click", function(e) {
		var target = find_group(e.target);
		if (target) {
			if (target.nodeName == "a") {
				if (e.ctrlKey === false) return;
				e.preventDefault();
			}
			if (target.classList.contains("parent")) unzoom();
			zoom(target);
		}
		else if (e.target.id == "unzoom") unzoom();
		else if (e.target.id == "search") search_prompt();
		else if (e.target.id == "ignorecase") toggle_ignorecase();
	}, false)

	// mouse-over for info
	// show
	window.addEventListener("mouseover", function(e) {
		var target = find_group(e.target);
		if (target) details.nodeValue = "Function: " + g_to_text(target);
	}, false)

	// clear
	window.addEventListener("mouseout", function(e) {
		var target = find_group(e.target);
		if (target) details.nodeValue = ' ';
	}, false)

	// ctrl-F for search
	window.addEventListener("keydown",function (e) {
		if (e.keyCode === 114 || (e.ctrlKey && e.keyCode === 70)) {
			e.preventDefault();
			search_prompt();
		}
	}, false)

	// ctrl-I to toggle case-sensitive search
	window.addEventListener("keydown",function (e) {
		if (e.ctrlKey && e.keyCode === 73) {
			e.preventDefault();
			toggle_ignorecase();
		}
	}, false)

	// functions
	function find_child(node, selector) {
		var children = node.querySelectorAll(selector);
		if (children.length) return children[0];
		return;
	}
	function find_group(node) {
		var parent = node.parentElement;
		if (!parent) return;
		if (parent.id == "frames") return node;
		return find_group(parent);
	}
	function orig_save(e, attr, val) {
		if (e.attributes["_orig_" + attr] != undefined) return;
		if (e.attributes[attr] == undefined) return;
		if (val == undefined) val = e.attributes[attr].value;
		e.setAttribute("_orig_" + attr, val);
	}
	function orig_load(e, attr) {
		if (e.attributes["_orig_"+attr] == undefined) return;
		e.attributes[attr].value = e.attributes["_orig_" + attr].value;
		e.removeAttribute("_orig_"+attr);
	}
	function g_to_text(e) {
		var text = find_child(e, "title").firstChild.nodeValue;
		return (text)
	}
	function g_to_func(e) {
		var func = g_to_text(e);
		// if there's any manipulation we want to do to the function
		// name before it's searched, do it here before returning.
		return (func);
	}
	function update_text(e) {
		var r = find_child(e, "rect");
		var t = find_child(e, "text");
		var w = parseFloat(r.attributes.width.value) -3;
		var txt = find_child(e, "title").textContent.replace(/\([^(]*\)$/,"");
		t.attributes.x.value = parseFloat(r.attributes.x.value) + 3;

		// Smaller than this size won't fit anything
		if (w < 2 * 12 * 0.59) {
			t.textContent = "";
			return;
		}

		t.textContent = txt;
		// Fit in full text width
		if (/^ *$/.test(txt) || t.getSubStringLength(0, txt.length) < w)
			return;

		for (var x = txt.length - 2; x > 0; x--) {
			if (t.getSubStringLength(0, x + 2) <= w) {
				t.textContent = txt.substring(0, x) + "..";
				return;
			}
		}
		t.textContent = "";
	}

	// zoom
	function zoom_reset(e) {
		if (e.attributes != undefined) {
			orig_load(e, "x");
			orig_load(e, "width");
		}
		if (e.childNodes == undefined) return;
		for (var i = 0, c = e.childNodes; i < c.length; i++) {
			zoom_reset(c[i]);
		}
	}
	function zoom_child(e, x, ratio) {
		if (e.attributes != undefined) {
			if (e.attributes.x != undefined) {
				orig_save(e, "x");
				e.attributes.x.value = (parseFloat(e.attributes.x.value) - x - 10) * ratio + 10;
				if (e.tagName == "text")
					e.attributes.x.value = find_child(e.parentNode, "rect[x]").attributes.x.value + 3;
			}
			if (e.attributes.width != undefined) {
				orig_save(e, "width");
				e.attributes.width.value = parseFloat(e.attributes.width.value) * ratio;
			}
		}

		if (e.childNodes == undefined) return;
		for (var i = 0, c = e.childNodes; i < c.length; i++) {
			zoom_child(c[i], x - 10, ratio);
		}
	}
	function zoom_parent(e) {
		if (e.attributes) {
			if (e.attributes.x != undefined) {
				orig_save(e, "x");
				e.attributes.x.value = 10;
			}
			if (e.attributes.width != undefined) {
				orig_save(e, "width");
				e.attributes.width.value = parseInt(svg.width.baseVal.value) - (10 * 2);
			}
		}
		if (e.childNodes == undefined) return;
		for (var i = 0, c = e.childNodes; i < c.length; i++) {
			zoom_parent(c[i]);
		}
	}
	function zoom(node) {
		var attr = find_child(node, "rect").attributes;
		var width = parseFloat(attr.width.value);
		var xmin = parseFloat(attr.x.value);
		var xmax = parseFloat(xmin + width);
		var ymin = parseFloat(attr.y.value);
		var ratio = (svg.width.baseVal.value - 2 * 10) / width;

		// XXX: Workaround for JavaScript float issues (fix me)
		var fudge = 0.0001;

		unzoombtn.classList.remove("hide");

		var el = document.getElementById("frames").children;
		for (var i = 0; i < el.length; i++) {
			var e = el[i];
			var a = find_child(e, "rect").attributes;
			var ex = parseFloat(a.x.value);
			var ew = parseFloat(a.width.value);
			var upstack;
			// Is it an ancestor
			if (0 == 0) {
				upstack = parseFloat(a.y.value) > ymin;
			} else {
				upstack = parseFloat(a.y.value) < ymin;
			}
			if (upstack) {
				// Direct ancestor
				if (ex <= xmin && (ex+ew+fudge) >= xmax) {
					e.classList.add("parent");
					zoom_parent(e);
					update_text(e);
				}
				// not in current path
				else
					e.classList.add("hide");
			}
			// Children maybe
			else {
				// no common path
				if (ex < xmin || ex + fudge >= xmax) {
					e.classList.add("hide");
				}
				else {
					zoom_child(e, xmin, ratio);
					update_text(e);
				}
			}
		}
		search();
	}
	function unzoom() {
		unzoombtn.classList.add("hide");
		var el = document.getElementById("frames").children;
		for(var i = 0; i < el.length; i++) {
			el[i].classList.remove("parent");
			el[i].classList.remove("hide");
			zoom_reset(el[i]);
			update_text(el[i]);
		}
		search();
	}

	// search
	function toggle_ignorecase() {
		ignorecase = !ignorecase;
		if (ignorecase) {
			ignorecaseBtn.classList.add("show");
		} else {
			ignorecaseBtn.classList.remove("show");
		}
		reset_search();
		search();
	}
	function reset_search() {
		var el = document.querySelectorAll("#frames rect");
		for (var i = 0; i < el.length; i++) {
			orig_load(el[i], "fill")
		}
	}
	function search_prompt() {
		if (!searching) {
			var term = prompt("Enter a search term (regexp " +
			    "allowed, eg: ^ext4_)"
			    + (ignorecase ? ", ignoring case" : "")
			    + "\nPress Ctrl-i to toggle case sensitivity", "");
			if (term != null) {
				currentSearchTerm = term;
				search();
			}
		} else {
			reset_search();
			searching = 0;
			currentSearchTerm = null;
			searchbtn.classList.remove("show");
			searchbtn.firstChild.nodeValue = "Search"
			matchedtxt.classList.add("hide");
			matchedtxt.firstChild.nodeValue = ""
		}
	}
	function search(term) {
		if (currentSearchTerm === null) return;
		var term = currentSearchTerm;

		var re = new RegExp(term, ignorecase ? 'i' : '');
		var el = document.getElementById("frames").children;
		var matches = new Object();
		var maxwidth = 0;
		for (var i = 0; i < el.length; i++) {
			var e = el[i];
			var func = g_to_func(e);
			var rect = find_child(e, "rect");
			if (func == null || rect == null)
				continue;

			// Save max width. Only works as we have a root frame
			var w = parseFloat(rect.attributes.width.value);
			if (w > maxwidth)
				maxwidth = w;

			if (func.match(re)) {
				// highlight
				var x = parseFloat(rect.attributes.x.value);
				orig_save(rect, "fill");
				rect.attributes.fill.value = "rgb(230,0,230)";

				// remember matches
				if (matches[x] == undefined) {
					matches[x] = w;
				} else {
					if (w > matches[x]) {
						// overwrite with parent
						matches[x] = w;
					}
				}
				searching = 1;
			}
		}
		if (!searching)
			return;

		searchbtn.classList.add("show");
		searchbtn.firstChild.nodeValue = "Reset Search";

		// calculate percent matched, excluding vertical overlap
		var count = 0;
		var lastx = -1;
		var lastw = 0;
		var keys = Array();
		for (k in matches) {
			if (matches.hasOwnProperty(k))
				keys.push(k);
		}
		// sort the matched frames by their x location
		// ascending, then width descending
		keys.sort(function(a, b){
			return a - b;
		});
		// Step through frames saving only the biggest bottom-up frames
		// thanks to the sort order. This relies on the tree property
		// where children are always smaller than their parents.
		var fudge = 0.0001;	// JavaScript floating point
		for (var k in keys) {
			var x = parseFloat(keys[k]);
			var w = matches[keys[k]];
			if (x >= lastx + lastw - fudge) {
				count += w;
				lastx = x;
				lastw = w;
			}
		}
		// display matched percent
		matchedtxt.classList.remove("hide");
		var pct = 100 * count / maxwidth;
		if (pct != 100) pct = pct.toFixed(1)
		matchedtxt.firstChild.nodeValue = "Matched: " + pct + "%";
	}
]]>
</script>
<rect x="0.0" y="0" width="1200.0" height="342.0" fill="url(#background)"  />
<text id="title" x="600.00" y="24" >Flame Graph</text>
<text id="details" x="10.00" y="325" > </text>
<text id="unzoom" x="10.00" y="24" class="hide">Reset Zoom</text>
<text id="search" x="1090.00" y="24" >Search</text>
<text id="ignorecase" x="1174.00" y="24" >ic</text>
<text id="matched" x="1090.00" y="325" > </text>
<g id="frames">
<g >
<title>__task_pid_nr_ns (1 samples, 1.02%)</title><rect x="226.7" y="197" width="12.1" height="15.0" fill="rgb(206,42,34)" rx="2" ry="2" />
<text  x="229.73" y="207.5" ></text>
</g>
<g >
<title>do_task_stat (9 samples, 9.18%)</title><rect x="34.1" y="101" width="108.3" height="15.0" fill="rgb(242,119,41)" rx="2" ry="2" />
<text  x="37.08" y="111.5" >do_task_stat</text>
</g>
<g >
<title>redis-server (98 samples, 100.00%)</title><rect x="10.0" y="277" width="1180.0" height="15.0" fill="rgb(240,60,11)" rx="2" ry="2" />
<text  x="13.00" y="287.5" >redis-server</text>
</g>
<g >
<title>do_syscall_64 (1 samples, 1.02%)</title><rect x="226.7" y="229" width="12.1" height="15.0" fill="rgb(222,210,16)" rx="2" ry="2" />
<text  x="229.73" y="239.5" ></text>
</g>
<g >
<title>__sysconf (1 samples, 1.02%)</title><rect x="371.2" y="261" width="12.1" height="15.0" fill="rgb(236,147,43)" rx="2" ry="2" />
<text  x="374.22" y="271.5" ></text>
</g>
<g >
<title>hrtimer_interrupt (1 samples, 1.02%)</title><rect x="10.0" y="181" width="12.0" height="15.0" fill="rgb(253,133,48)" rx="2" ry="2" />
<text  x="13.00" y="191.5" ></text>
</g>
<g >
<title>schedule_hrtimeout_range_clock (52 samples, 53.06%)</title><rect x="491.6" y="165" width="626.2" height="15.0" fill="rgb(225,131,39)" rx="2" ry="2" />
<text  x="494.63" y="175.5" >schedule_hrtimeout_range_clock</text>
</g>
<g >
<title>native_flush_tlb_one_user (1 samples, 1.02%)</title><rect x="588.0" y="37" width="12.0" height="15.0" fill="rgb(231,192,51)" rx="2" ry="2" />
<text  x="590.96" y="47.5" ></text>
</g>
<g >
<title>kmem_cache_alloc (2 samples, 2.04%)</title><rect x="250.8" y="133" width="24.1" height="15.0" fill="rgb(215,120,8)" rx="2" ry="2" />
<text  x="253.82" y="143.5" >k..</text>
</g>
<g >
<title>trackInstantaneousMetric (1 samples, 1.02%)</title><rect x="190.6" y="245" width="12.1" height="15.0" fill="rgb(227,55,33)" rx="2" ry="2" />
<text  x="193.61" y="255.5" ></text>
</g>
<g >
<title>put_dec_trunc8 (2 samples, 2.04%)</title><rect x="106.3" y="37" width="24.1" height="15.0" fill="rgb(244,198,3)" rx="2" ry="2" />
<text  x="109.33" y="47.5" >p..</text>
</g>
<g >
<title>__libc_read (12 samples, 12.24%)</title><rect x="34.1" y="245" width="144.5" height="15.0" fill="rgb(242,132,41)" rx="2" ry="2" />
<text  x="37.08" y="255.5" >__libc_read</text>
</g>
<g >
<title>expand_files (1 samples, 1.02%)</title><rect x="311.0" y="165" width="12.1" height="15.0" fill="rgb(238,33,45)" rx="2" ry="2" />
<text  x="314.02" y="175.5" ></text>
</g>
<g >
<title>smp_apic_timer_interrupt (1 samples, 1.02%)</title><rect x="10.0" y="197" width="12.0" height="15.0" fill="rgb(242,121,16)" rx="2" ry="2" />
<text  x="13.00" y="207.5" ></text>
</g>
<g >
<title>native_write_cr2 (1 samples, 1.02%)</title><rect x="636.1" y="37" width="12.1" height="15.0" fill="rgb(205,179,12)" rx="2" ry="2" />
<text  x="639.12" y="47.5" ></text>
</g>
<g >
<title>do_sys_open (8 samples, 8.16%)</title><rect x="250.8" y="197" width="96.3" height="15.0" fill="rgb(217,77,32)" rx="2" ry="2" />
<text  x="253.82" y="207.5" >do_sys_open</text>
</g>
<g >
<title>x86_pmu_enable (35 samples, 35.71%)</title><rect x="527.8" y="85" width="421.4" height="15.0" fill="rgb(245,199,51)" rx="2" ry="2" />
<text  x="530.76" y="95.5" >x86_pmu_enable</text>
</g>
<g >
<title>updateCachedTime (1 samples, 1.02%)</title><rect x="1178.0" y="261" width="12.0" height="15.0" fill="rgb(230,85,24)" rx="2" ry="2" />
<text  x="1180.96" y="271.5" ></text>
</g>
<g >
<title>intel_pmu_handle_irq (2 samples, 2.04%)</title><rect x="563.9" y="37" width="24.1" height="15.0" fill="rgb(254,212,15)" rx="2" ry="2" />
<text  x="566.88" y="47.5" >i..</text>
</g>
<g >
<title>__pthread_disable_asynccancel (1 samples, 1.02%)</title><rect x="359.2" y="261" width="12.0" height="15.0" fill="rgb(242,210,23)" rx="2" ry="2" />
<text  x="362.18" y="271.5" ></text>
</g>
<g >
<title>seq_printf (3 samples, 3.06%)</title><rect x="58.2" y="85" width="36.1" height="15.0" fill="rgb(254,33,54)" rx="2" ry="2" />
<text  x="61.16" y="95.5" >seq..</text>
</g>
<g >
<title>[[vdso]] (1 samples, 1.02%)</title><rect x="1178.0" y="229" width="12.0" height="15.0" fill="rgb(213,124,54)" rx="2" ry="2" />
<text  x="1180.96" y="239.5" ></text>
</g>
<g >
<title>update_process_times (1 samples, 1.02%)</title><rect x="10.0" y="117" width="12.0" height="15.0" fill="rgb(233,127,12)" rx="2" ry="2" />
<text  x="13.00" y="127.5" ></text>
</g>
<g >
<title>lookup_fast (1 samples, 1.02%)</title><rect x="286.9" y="149" width="12.1" height="15.0" fill="rgb(210,104,36)" rx="2" ry="2" />
<text  x="289.94" y="159.5" ></text>
</g>
<g >
<title>get_unused_fd_flags (1 samples, 1.02%)</title><rect x="347.1" y="197" width="12.1" height="15.0" fill="rgb(215,150,54)" rx="2" ry="2" />
<text  x="350.14" y="207.5" ></text>
</g>
<g >
<title>common_file_perm (1 samples, 1.02%)</title><rect x="166.5" y="133" width="12.1" height="15.0" fill="rgb(240,125,52)" rx="2" ry="2" />
<text  x="169.53" y="143.5" ></text>
</g>
<g >
<title>__hrtimer_run_queues (1 samples, 1.02%)</title><rect x="10.0" y="165" width="12.0" height="15.0" fill="rgb(225,141,22)" rx="2" ry="2" />
<text  x="13.00" y="175.5" ></text>
</g>
<g >
<title>entry_SYSCALL_64_after_hwframe (53 samples, 54.08%)</title><rect x="491.6" y="245" width="638.2" height="15.0" fill="rgb(244,137,44)" rx="2" ry="2" />
<text  x="494.63" y="255.5" >entry_SYSCALL_64_after_hwframe</text>
</g>
<g >
<title>seq_printf (1 samples, 1.02%)</title><rect x="142.4" y="101" width="12.1" height="15.0" fill="rgb(235,213,25)" rx="2" ry="2" />
<text  x="145.45" y="111.5" ></text>
</g>
<g >
<title>do_filp_open (5 samples, 5.10%)</title><rect x="250.8" y="181" width="60.2" height="15.0" fill="rgb(248,34,49)" rx="2" ry="2" />
<text  x="253.82" y="191.5" >do_fil..</text>
</g>
<g >
<title>strlen (1 samples, 1.02%)</title><rect x="130.4" y="85" width="12.0" height="15.0" fill="rgb(219,216,36)" rx="2" ry="2" />
<text  x="133.41" y="95.5" ></text>
</g>
<g >
<title>seq_vprintf (2 samples, 2.04%)</title><rect x="70.2" y="69" width="24.1" height="15.0" fill="rgb(231,132,6)" rx="2" ry="2" />
<text  x="73.20" y="79.5" >s..</text>
</g>
<g >
<title>native_sched_clock (3 samples, 3.06%)</title><rect x="600.0" y="37" width="36.1" height="15.0" fill="rgb(244,29,10)" rx="2" ry="2" />
<text  x="603.00" y="47.5" >nat..</text>
</g>
<g >
<title>intel_bts_enable_local (1 samples, 1.02%)</title><rect x="551.8" y="37" width="12.1" height="15.0" fill="rgb(218,77,7)" rx="2" ry="2" />
<text  x="554.84" y="47.5" ></text>
</g>
<g >
<title>perf_event_task_tick (1 samples, 1.02%)</title><rect x="10.0" y="85" width="12.0" height="15.0" fill="rgb(220,1,18)" rx="2" ry="2" />
<text  x="13.00" y="95.5" ></text>
</g>
<g >
<title>load_balance (12 samples, 12.24%)</title><rect x="961.2" y="101" width="144.5" height="15.0" fill="rgb(216,189,51)" rx="2" ry="2" />
<text  x="964.22" y="111.5" >load_balance</text>
</g>
<g >
<title>syscall_return_via_sysret (1 samples, 1.02%)</title><rect x="214.7" y="245" width="12.0" height="15.0" fill="rgb(242,65,24)" rx="2" ry="2" />
<text  x="217.69" y="255.5" ></text>
</g>
<g >
<title>nmi_handle (1 samples, 1.02%)</title><rect x="937.1" y="37" width="12.1" height="15.0" fill="rgb(211,140,27)" rx="2" ry="2" />
<text  x="940.14" y="47.5" ></text>
</g>
<g >
<title>sys_epoll_wait (53 samples, 54.08%)</title><rect x="491.6" y="213" width="638.2" height="15.0" fill="rgb(238,175,33)" rx="2" ry="2" />
<text  x="494.63" y="223.5" >sys_epoll_wait</text>
</g>
<g >
<title>sched_clock_cpu (1 samples, 1.02%)</title><rect x="1105.7" y="101" width="12.1" height="15.0" fill="rgb(233,3,32)" rx="2" ry="2" />
<text  x="1108.71" y="111.5" ></text>
</g>
<g >
<title>cpumask_next_and (1 samples, 1.02%)</title><rect x="1093.7" y="69" width="12.0" height="15.0" fill="rgb(232,93,3)" rx="2" ry="2" />
<text  x="1096.67" y="79.5" ></text>
</g>
<g >
<title>entry_SYSCALL_64_after_hwframe (1 samples, 1.02%)</title><rect x="202.7" y="245" width="12.0" height="15.0" fill="rgb(241,140,9)" rx="2" ry="2" />
<text  x="205.65" y="255.5" ></text>
</g>
<g >
<title>deactivate_task (1 samples, 1.02%)</title><rect x="515.7" y="117" width="12.1" height="15.0" fill="rgb(218,74,26)" rx="2" ry="2" />
<text  x="518.71" y="127.5" ></text>
</g>
<g >
<title>__vdso_gettimeofday (1 samples, 1.02%)</title><rect x="1178.0" y="245" width="12.0" height="15.0" fill="rgb(216,189,48)" rx="2" ry="2" />
<text  x="1180.96" y="255.5" ></text>
</g>
<g >
<title>do_syscall_64 (12 samples, 12.24%)</title><rect x="34.1" y="213" width="144.5" height="15.0" fill="rgb(246,117,39)" rx="2" ry="2" />
<text  x="37.08" y="223.5" >do_syscall_64</text>
</g>
<g >
<title>tick_sched_handle (1 samples, 1.02%)</title><rect x="10.0" y="133" width="12.0" height="15.0" fill="rgb(236,76,31)" rx="2" ry="2" />
<text  x="13.00" y="143.5" ></text>
</g>
<g >
<title>sys_read (12 samples, 12.24%)</title><rect x="34.1" y="197" width="144.5" height="15.0" fill="rgb(234,208,4)" rx="2" ry="2" />
<text  x="37.08" y="207.5" >sys_read</text>
</g>
<g >
<title>path_openat (5 samples, 5.10%)</title><rect x="250.8" y="165" width="60.2" height="15.0" fill="rgb(217,44,54)" rx="2" ry="2" />
<text  x="253.82" y="175.5" >path_o..</text>
</g>
<g >
<title>hrtimer_start_range_ns (1 samples, 1.02%)</title><rect x="491.6" y="149" width="12.1" height="15.0" fill="rgb(246,216,0)" rx="2" ry="2" />
<text  x="494.63" y="159.5" ></text>
</g>
<g >
<title>hrtimer_active (1 samples, 1.02%)</title><rect x="503.7" y="133" width="12.0" height="15.0" fill="rgb(237,36,46)" rx="2" ry="2" />
<text  x="506.67" y="143.5" ></text>
</g>
<g >
<title>percpu_counter_add_batch (1 samples, 1.02%)</title><rect x="274.9" y="133" width="12.0" height="15.0" fill="rgb(243,162,0)" rx="2" ry="2" />
<text  x="277.90" y="143.5" ></text>
</g>
<g >
<title>vfs_open (1 samples, 1.02%)</title><rect x="299.0" y="149" width="12.0" height="15.0" fill="rgb(245,45,13)" rx="2" ry="2" />
<text  x="301.98" y="159.5" ></text>
</g>
<g >
<title>[unknown] (2 samples, 2.04%)</title><rect x="10.0" y="245" width="24.1" height="15.0" fill="rgb(208,110,54)" rx="2" ry="2" />
<text  x="13.00" y="255.5" >[..</text>
</g>
<g >
<title>acpi_os_read_memory (1 samples, 1.02%)</title><rect x="539.8" y="37" width="12.0" height="15.0" fill="rgb(248,128,10)" rx="2" ry="2" />
<text  x="542.80" y="47.5" ></text>
</g>
<g >
<title>getname_flags (1 samples, 1.02%)</title><rect x="323.1" y="165" width="12.0" height="15.0" fill="rgb(214,216,49)" rx="2" ry="2" />
<text  x="326.06" y="175.5" ></text>
</g>
<g >
<title>put_dec (2 samples, 2.04%)</title><rect x="106.3" y="53" width="24.1" height="15.0" fill="rgb(237,97,19)" rx="2" ry="2" />
<text  x="109.33" y="63.5" >p..</text>
</g>
<g >
<title>__intel_pmu_enable_all.constprop.23 (35 samples, 35.71%)</title><rect x="527.8" y="53" width="421.4" height="15.0" fill="rgb(250,14,8)" rx="2" ry="2" />
<text  x="530.76" y="63.5" >__intel_pmu_enable_all.constprop.23</text>
</g>
<g >
<title>__vsnprintf_chk (3 samples, 3.06%)</title><rect x="383.3" y="261" width="36.1" height="15.0" fill="rgb(233,79,49)" rx="2" ry="2" />
<text  x="386.27" y="271.5" >__v..</text>
</g>
<g >
<title>__libc_disable_asynccancel (1 samples, 1.02%)</title><rect x="238.8" y="261" width="12.0" height="15.0" fill="rgb(244,153,53)" rx="2" ry="2" />
<text  x="241.78" y="271.5" ></text>
</g>
<g >
<title>dequeue_task_fair (1 samples, 1.02%)</title><rect x="515.7" y="101" width="12.1" height="15.0" fill="rgb(208,116,41)" rx="2" ry="2" />
<text  x="518.71" y="111.5" ></text>
</g>
<g >
<title>single_stop (1 samples, 1.02%)</title><rect x="154.5" y="149" width="12.0" height="15.0" fill="rgb(241,64,12)" rx="2" ry="2" />
<text  x="157.49" y="159.5" ></text>
</g>
<g >
<title>proc_single_show (10 samples, 10.20%)</title><rect x="34.1" y="133" width="120.4" height="15.0" fill="rgb(247,6,19)" rx="2" ry="2" />
<text  x="37.08" y="143.5" >proc_single_show</text>
</g>
<g >
<title>epoll_wait (54 samples, 55.10%)</title><rect x="479.6" y="261" width="650.2" height="15.0" fill="rgb(220,199,6)" rx="2" ry="2" />
<text  x="482.59" y="271.5" >epoll_wait</text>
</g>
<g >
<title>find_next_bit (1 samples, 1.02%)</title><rect x="1093.7" y="53" width="12.0" height="15.0" fill="rgb(226,77,51)" rx="2" ry="2" />
<text  x="1096.67" y="63.5" ></text>
</g>
<g >
<title>vsnprintf (2 samples, 2.04%)</title><rect x="70.2" y="53" width="24.1" height="15.0" fill="rgb(210,9,40)" rx="2" ry="2" />
<text  x="73.20" y="63.5" >v..</text>
</g>
<g >
<title>tryResizeHashTables (3 samples, 3.06%)</title><rect x="1141.8" y="261" width="36.2" height="15.0" fill="rgb(224,125,30)" rx="2" ry="2" />
<text  x="1144.84" y="271.5" >try..</text>
</g>
<g >
<title>aeProcessEvents (2 samples, 2.04%)</title><rect x="431.4" y="261" width="24.1" height="15.0" fill="rgb(237,208,53)" rx="2" ry="2" />
<text  x="434.43" y="271.5" >a..</text>
</g>
<g >
<title>do_dentry_open (1 samples, 1.02%)</title><rect x="299.0" y="133" width="12.0" height="15.0" fill="rgb(236,185,16)" rx="2" ry="2" />
<text  x="301.98" y="143.5" ></text>
</g>
<g >
<title>__getpid (1 samples, 1.02%)</title><rect x="226.7" y="261" width="12.1" height="15.0" fill="rgb(213,71,6)" rx="2" ry="2" />
<text  x="229.73" y="271.5" ></text>
</g>
<g >
<title>pick_next_task_fair (13 samples, 13.27%)</title><rect x="961.2" y="117" width="156.6" height="15.0" fill="rgb(226,3,49)" rx="2" ry="2" />
<text  x="964.22" y="127.5" >pick_next_task_fair</text>
</g>
<g >
<title>seq_read (10 samples, 10.20%)</title><rect x="34.1" y="149" width="120.4" height="15.0" fill="rgb(212,131,23)" rx="2" ry="2" />
<text  x="37.08" y="159.5" >seq_read</text>
</g>
<g >
<title>getname_flags (1 samples, 1.02%)</title><rect x="335.1" y="181" width="12.0" height="15.0" fill="rgb(235,92,34)" rx="2" ry="2" />
<text  x="338.10" y="191.5" ></text>
</g>
<g >
<title>num_to_str (3 samples, 3.06%)</title><rect x="94.3" y="69" width="36.1" height="15.0" fill="rgb(232,19,42)" rx="2" ry="2" />
<text  x="97.29" y="79.5" >num..</text>
</g>
<g >
<title>seq_put_decimal_ull (3 samples, 3.06%)</title><rect x="94.3" y="85" width="36.1" height="15.0" fill="rgb(246,2,48)" rx="2" ry="2" />
<text  x="97.29" y="95.5" >seq..</text>
</g>
<g >
<title>entry_SYSCALL_64_after_hwframe (12 samples, 12.24%)</title><rect x="34.1" y="229" width="144.5" height="15.0" fill="rgb(220,218,24)" rx="2" ry="2" />
<text  x="37.08" y="239.5" >entry_SYSCALL_64_a..</text>
</g>
<g >
<title>do_syscall_64 (53 samples, 54.08%)</title><rect x="491.6" y="229" width="638.2" height="15.0" fill="rgb(231,187,14)" rx="2" ry="2" />
<text  x="494.63" y="239.5" >do_syscall_64</text>
</g>
<g >
<title>sys_openat (9 samples, 9.18%)</title><rect x="250.8" y="213" width="108.4" height="15.0" fill="rgb(218,164,43)" rx="2" ry="2" />
<text  x="253.82" y="223.5" >sys_openat</text>
</g>
<g >
<title>native_sched_clock (1 samples, 1.02%)</title><rect x="1105.7" y="85" width="12.1" height="15.0" fill="rgb(216,1,10)" rx="2" ry="2" />
<text  x="1108.71" y="95.5" ></text>
</g>
<g >
<title>apparmor_file_open (1 samples, 1.02%)</title><rect x="299.0" y="117" width="12.0" height="15.0" fill="rgb(229,157,43)" rx="2" ry="2" />
<text  x="301.98" y="127.5" ></text>
</g>
<g >
<title>__vfs_read (11 samples, 11.22%)</title><rect x="34.1" y="165" width="132.4" height="15.0" fill="rgb(216,196,20)" rx="2" ry="2" />
<text  x="37.08" y="175.5" >__vfs_read</text>
</g>
<g >
<title>__open64 (9 samples, 9.18%)</title><rect x="250.8" y="261" width="108.4" height="15.0" fill="rgb(250,4,16)" rx="2" ry="2" />
<text  x="253.82" y="271.5" >__open64</text>
</g>
<g >
<title>security_file_permission (1 samples, 1.02%)</title><rect x="166.5" y="149" width="12.1" height="15.0" fill="rgb(243,205,27)" rx="2" ry="2" />
<text  x="169.53" y="159.5" ></text>
</g>
<g >
<title>lock_hrtimer_base.isra.19 (1 samples, 1.02%)</title><rect x="491.6" y="133" width="12.1" height="15.0" fill="rgb(216,90,52)" rx="2" ry="2" />
<text  x="494.63" y="143.5" ></text>
</g>
<g >
<title>scheduler_tick (1 samples, 1.02%)</title><rect x="10.0" y="101" width="12.0" height="15.0" fill="rgb(227,29,12)" rx="2" ry="2" />
<text  x="13.00" y="111.5" ></text>
</g>
<g >
<title>kmem_cache_alloc (1 samples, 1.02%)</title><rect x="323.1" y="149" width="12.0" height="15.0" fill="rgb(242,172,6)" rx="2" ry="2" />
<text  x="326.06" y="159.5" ></text>
</g>
<g >
<title>serverCron (1 samples, 1.02%)</title><rect x="1129.8" y="261" width="12.0" height="15.0" fill="rgb(246,84,31)" rx="2" ry="2" />
<text  x="1132.80" y="271.5" ></text>
</g>
<g >
<title>getname (1 samples, 1.02%)</title><rect x="323.1" y="181" width="12.0" height="15.0" fill="rgb(223,97,45)" rx="2" ry="2" />
<text  x="326.06" y="191.5" ></text>
</g>
<g >
<title>serverCron (1 samples, 1.02%)</title><rect x="178.6" y="245" width="12.0" height="15.0" fill="rgb(222,110,28)" rx="2" ry="2" />
<text  x="181.57" y="255.5" ></text>
</g>
<g >
<title>activeExpireCycle (1 samples, 1.02%)</title><rect x="419.4" y="261" width="12.0" height="15.0" fill="rgb(253,180,4)" rx="2" ry="2" />
<text  x="422.39" y="271.5" ></text>
</g>
<g >
<title>memcg_kmem_get_cache (1 samples, 1.02%)</title><rect x="262.9" y="117" width="12.0" height="15.0" fill="rgb(245,55,13)" rx="2" ry="2" />
<text  x="265.86" y="127.5" ></text>
</g>
<g >
<title>get_unused_fd_flags (1 samples, 1.02%)</title><rect x="311.0" y="181" width="12.1" height="15.0" fill="rgb(242,85,45)" rx="2" ry="2" />
<text  x="314.02" y="191.5" ></text>
</g>
<g >
<title>intel_pmu_disable_all (1 samples, 1.02%)</title><rect x="10.0" y="69" width="12.0" height="15.0" fill="rgb(226,193,15)" rx="2" ry="2" />
<text  x="13.00" y="79.5" ></text>
</g>
<g >
<title>epoll_wait (1 samples, 1.02%)</title><rect x="22.0" y="229" width="12.1" height="15.0" fill="rgb(239,7,5)" rx="2" ry="2" />
<text  x="25.04" y="239.5" ></text>
</g>
<g >
<title>proc_tgid_stat (10 samples, 10.20%)</title><rect x="34.1" y="117" width="120.4" height="15.0" fill="rgb(246,76,35)" rx="2" ry="2" />
<text  x="37.08" y="127.5" >proc_tgid_stat</text>
</g>
<g >
<title>apic_timer_interrupt (1 samples, 1.02%)</title><rect x="10.0" y="213" width="12.0" height="15.0" fill="rgb(208,197,35)" rx="2" ry="2" />
<text  x="13.00" y="223.5" ></text>
</g>
<g >
<title>__close (2 samples, 2.04%)</title><rect x="202.7" y="261" width="24.0" height="15.0" fill="rgb(227,52,21)" rx="2" ry="2" />
<text  x="205.65" y="271.5" >_..</text>
</g>
<g >
<title>vfprintf (3 samples, 3.06%)</title><rect x="383.3" y="245" width="36.1" height="15.0" fill="rgb(237,129,23)" rx="2" ry="2" />
<text  x="386.27" y="255.5" >vfp..</text>
</g>
<g >
<title>schedule (50 samples, 51.02%)</title><rect x="515.7" y="149" width="602.1" height="15.0" fill="rgb(217,52,11)" rx="2" ry="2" />
<text  x="518.71" y="159.5" >schedule</text>
</g>
<g >
<title>native_write_msr (24 samples, 24.49%)</title><rect x="648.2" y="37" width="288.9" height="15.0" fill="rgb(247,19,37)" rx="2" ry="2" />
<text  x="651.16" y="47.5" >native_write_msr</text>
</g>
<g >
<title>vfs_read (12 samples, 12.24%)</title><rect x="34.1" y="181" width="144.5" height="15.0" fill="rgb(207,55,18)" rx="2" ry="2" />
<text  x="37.08" y="191.5" >vfs_read</text>
</g>
<g >
<title>[unknown] (16 samples, 16.33%)</title><rect x="10.0" y="261" width="192.7" height="15.0" fill="rgb(244,226,12)" rx="2" ry="2" />
<text  x="13.00" y="271.5" >[unknown]</text>
</g>
<g >
<title>perf_ctx_unlock (1 samples, 1.02%)</title><rect x="949.2" y="101" width="12.0" height="15.0" fill="rgb(205,180,10)" rx="2" ry="2" />
<text  x="952.18" y="111.5" ></text>
</g>
<g >
<title>sys_getpid (1 samples, 1.02%)</title><rect x="226.7" y="213" width="12.1" height="15.0" fill="rgb(246,223,2)" rx="2" ry="2" />
<text  x="229.73" y="223.5" ></text>
</g>
<g >
<title>__perf_event_task_sched_in (35 samples, 35.71%)</title><rect x="527.8" y="101" width="421.4" height="15.0" fill="rgb(242,105,42)" rx="2" ry="2" />
<text  x="530.76" y="111.5" >__perf_event_task_sched_in</text>
</g>
<g >
<title>tick_sched_timer (1 samples, 1.02%)</title><rect x="10.0" y="149" width="12.0" height="15.0" fill="rgb(245,74,39)" rx="2" ry="2" />
<text  x="13.00" y="159.5" ></text>
</g>
<g >
<title>fput (1 samples, 1.02%)</title><rect x="1117.8" y="197" width="12.0" height="15.0" fill="rgb(215,188,8)" rx="2" ry="2" />
<text  x="1120.76" y="207.5" ></text>
</g>
<g >
<title>sys_close (1 samples, 1.02%)</title><rect x="202.7" y="213" width="12.0" height="15.0" fill="rgb(246,224,9)" rx="2" ry="2" />
<text  x="205.65" y="223.5" ></text>
</g>
<g >
<title>ep_poll (52 samples, 53.06%)</title><rect x="491.6" y="197" width="626.2" height="15.0" fill="rgb(237,188,28)" rx="2" ry="2" />
<text  x="494.63" y="207.5" >ep_poll</text>
</g>
<g >
<title>find_busiest_group (11 samples, 11.22%)</title><rect x="973.3" y="85" width="132.4" height="15.0" fill="rgb(217,100,40)" rx="2" ry="2" />
<text  x="976.27" y="95.5" >find_busiest_group</text>
</g>
<g >
<title>__sched_text_start (50 samples, 51.02%)</title><rect x="515.7" y="133" width="602.1" height="15.0" fill="rgb(206,157,32)" rx="2" ry="2" />
<text  x="518.71" y="143.5" >__sched_text_start</text>
</g>
<g >
<title>hrtimer_try_to_cancel (1 samples, 1.02%)</title><rect x="503.7" y="149" width="12.0" height="15.0" fill="rgb(210,165,33)" rx="2" ry="2" />
<text  x="506.67" y="159.5" ></text>
</g>
<g >
<title>__d_lookup (1 samples, 1.02%)</title><rect x="286.9" y="133" width="12.1" height="15.0" fill="rgb(208,174,28)" rx="2" ry="2" />
<text  x="289.94" y="143.5" ></text>
</g>
<g >
<title>__intel_pmu_enable_all.constprop.23 (1 samples, 1.02%)</title><rect x="527.8" y="37" width="12.0" height="15.0" fill="rgb(252,128,5)" rx="2" ry="2" />
<text  x="530.76" y="47.5" ></text>
</g>
<g >
<title>databasesCron (2 samples, 2.04%)</title><rect x="455.5" y="261" width="24.1" height="15.0" fill="rgb(218,12,16)" rx="2" ry="2" />
<text  x="458.51" y="271.5" >d..</text>
</g>
<g >
<title>memcpy (1 samples, 1.02%)</title><rect x="46.1" y="85" width="12.1" height="15.0" fill="rgb(227,87,26)" rx="2" ry="2" />
<text  x="49.12" y="95.5" ></text>
</g>
<g >
<title>finish_task_switch (36 samples, 36.73%)</title><rect x="527.8" y="117" width="433.4" height="15.0" fill="rgb(242,215,52)" rx="2" ry="2" />
<text  x="530.76" y="127.5" >finish_task_switch</text>
</g>
<g >
<title>schedule_hrtimeout_range (52 samples, 53.06%)</title><rect x="491.6" y="181" width="626.2" height="15.0" fill="rgb(253,27,5)" rx="2" ry="2" />
<text  x="494.63" y="191.5" >schedule_hrtimeout_range</text>
</g>
<g >
<title>rw_verify_area (1 samples, 1.02%)</title><rect x="166.5" y="165" width="12.1" height="15.0" fill="rgb(234,51,48)" rx="2" ry="2" />
<text  x="169.53" y="175.5" ></text>
</g>
<g >
<title>__close_fd (1 samples, 1.02%)</title><rect x="202.7" y="197" width="12.0" height="15.0" fill="rgb(250,20,27)" rx="2" ry="2" />
<text  x="205.65" y="207.5" ></text>
</g>
<g >
<title>do_syscall_64 (1 samples, 1.02%)</title><rect x="202.7" y="229" width="12.0" height="15.0" fill="rgb(229,217,53)" rx="2" ry="2" />
<text  x="205.65" y="239.5" ></text>
</g>
<g >
<title>do_syscall_64 (9 samples, 9.18%)</title><rect x="250.8" y="229" width="108.4" height="15.0" fill="rgb(209,95,49)" rx="2" ry="2" />
<text  x="253.82" y="239.5" >do_syscall_64</text>
</g>
<g >
<title>entry_SYSCALL_64_after_hwframe (1 samples, 1.02%)</title><rect x="226.7" y="245" width="12.1" height="15.0" fill="rgb(217,16,25)" rx="2" ry="2" />
<text  x="229.73" y="255.5" ></text>
</g>
<g >
<title>aeProcessEvents (1 samples, 1.02%)</title><rect x="10.0" y="229" width="12.0" height="15.0" fill="rgb(218,11,26)" rx="2" ry="2" />
<text  x="13.00" y="239.5" ></text>
</g>
<g >
<title>entry_SYSCALL_64_after_hwframe (9 samples, 9.18%)</title><rect x="250.8" y="245" width="108.4" height="15.0" fill="rgb(226,152,18)" rx="2" ry="2" />
<text  x="253.82" y="255.5" >entry_SYSCALL..</text>
</g>
<g >
<title>get_empty_filp (3 samples, 3.06%)</title><rect x="250.8" y="149" width="36.1" height="15.0" fill="rgb(253,7,14)" rx="2" ry="2" />
<text  x="253.82" y="159.5" >get..</text>
</g>
<g >
<title>all (98 samples, 100%)</title><rect x="10.0" y="293" width="1180.0" height="15.0" fill="rgb(210,67,38)" rx="2" ry="2" />
<text  x="13.00" y="303.5" ></text>
</g>
<g >
<title>intel_pmu_enable_all (35 samples, 35.71%)</title><rect x="527.8" y="69" width="421.4" height="15.0" fill="rgb(251,207,18)" rx="2" ry="2" />
<text  x="530.76" y="79.5" >intel_pmu_enable_all</text>
</g>
</g>
</svg>
