<?xml version="1.0" standalone="no"?>
<!DOCTYPE svg PUBLIC "-//W3C//DTD SVG 1.1//EN" "http://www.w3.org/Graphics/SVG/1.1/DTD/svg11.dtd">
<svg version="1.1" width="1200" height="470" onload="init(evt)" viewBox="0 0 1200 470" xmlns="http://www.w3.org/2000/svg" xmlns:xlink="http://www.w3.org/1999/xlink">
<!-- Flame graph stack visualization. See https://github.com/brendangregg/FlameGraph for latest version, and http://www.brendangregg.com/flamegraphs.html for examples. -->
<!-- NOTES:  -->
<defs>
	<linearGradient id="background" y1="0" y2="1" x1="0" x2="0" >
		<stop stop-color="#eeeeee" offset="5%" />
		<stop stop-color="#eeeeb0" offset="95%" />
	</linearGradient>
</defs>
<style type="text/css">
	text { font-family:Verdana; font-size:12px; fill:rgb(0,0,0); }
	#search, #ignorecase { opacity:0.1; cursor:pointer; }
	#search:hover, #search.show, #ignorecase:hover, #ignorecase.show { opacity:1; }
	#subtitle { text-anchor:middle; font-color:rgb(160,160,160); }
	#title { text-anchor:middle; font-size:17px}
	#unzoom { cursor:pointer; }
	#frames > *:hover { stroke:black; stroke-width:0.5; cursor:pointer; }
	.hide { display:none; }
	.parent { opacity:0.5; }
</style>
<script type="text/ecmascript">
<![CDATA[
	"use strict";
	var details, searchbtn, unzoombtn, matchedtxt, svg, searching, currentSearchTerm, ignorecase, ignorecaseBtn;
	function init(evt) {
		details = document.getElementById("details").firstChild;
		searchbtn = document.getElementById("search");
		ignorecaseBtn = document.getElementById("ignorecase");
		unzoombtn = document.getElementById("unzoom");
		matchedtxt = document.getElementById("matched");
		svg = document.getElementsByTagName("svg")[0];
		searching = 0;
		currentSearchTerm = null;
	}

	window.addEventListener("click", function(e) {
		var target = find_group(e.target);
		if (target) {
			if (target.nodeName == "a") {
				if (e.ctrlKey === false) return;
				e.preventDefault();
			}
			if (target.classList.contains("parent")) unzoom();
			zoom(target);
		}
		else if (e.target.id == "unzoom") unzoom();
		else if (e.target.id == "search") search_prompt();
		else if (e.target.id == "ignorecase") toggle_ignorecase();
	}, false)

	// mouse-over for info
	// show
	window.addEventListener("mouseover", function(e) {
		var target = find_group(e.target);
		if (target) details.nodeValue = "Function: " + g_to_text(target);
	}, false)

	// clear
	window.addEventListener("mouseout", function(e) {
		var target = find_group(e.target);
		if (target) details.nodeValue = ' ';
	}, false)

	// ctrl-F for search
	window.addEventListener("keydown",function (e) {
		if (e.keyCode === 114 || (e.ctrlKey && e.keyCode === 70)) {
			e.preventDefault();
			search_prompt();
		}
	}, false)

	// ctrl-I to toggle case-sensitive search
	window.addEventListener("keydown",function (e) {
		if (e.ctrlKey && e.keyCode === 73) {
			e.preventDefault();
			toggle_ignorecase();
		}
	}, false)

	// functions
	function find_child(node, selector) {
		var children = node.querySelectorAll(selector);
		if (children.length) return children[0];
		return;
	}
	function find_group(node) {
		var parent = node.parentElement;
		if (!parent) return;
		if (parent.id == "frames") return node;
		return find_group(parent);
	}
	function orig_save(e, attr, val) {
		if (e.attributes["_orig_" + attr] != undefined) return;
		if (e.attributes[attr] == undefined) return;
		if (val == undefined) val = e.attributes[attr].value;
		e.setAttribute("_orig_" + attr, val);
	}
	function orig_load(e, attr) {
		if (e.attributes["_orig_"+attr] == undefined) return;
		e.attributes[attr].value = e.attributes["_orig_" + attr].value;
		e.removeAttribute("_orig_"+attr);
	}
	function g_to_text(e) {
		var text = find_child(e, "title").firstChild.nodeValue;
		return (text)
	}
	function g_to_func(e) {
		var func = g_to_text(e);
		// if there's any manipulation we want to do to the function
		// name before it's searched, do it here before returning.
		return (func);
	}
	function update_text(e) {
		var r = find_child(e, "rect");
		var t = find_child(e, "text");
		var w = parseFloat(r.attributes.width.value) -3;
		var txt = find_child(e, "title").textContent.replace(/\([^(]*\)$/,"");
		t.attributes.x.value = parseFloat(r.attributes.x.value) + 3;

		// Smaller than this size won't fit anything
		if (w < 2 * 12 * 0.59) {
			t.textContent = "";
			return;
		}

		t.textContent = txt;
		// Fit in full text width
		if (/^ *$/.test(txt) || t.getSubStringLength(0, txt.length) < w)
			return;

		for (var x = txt.length - 2; x > 0; x--) {
			if (t.getSubStringLength(0, x + 2) <= w) {
				t.textContent = txt.substring(0, x) + "..";
				return;
			}
		}
		t.textContent = "";
	}

	// zoom
	function zoom_reset(e) {
		if (e.attributes != undefined) {
			orig_load(e, "x");
			orig_load(e, "width");
		}
		if (e.childNodes == undefined) return;
		for (var i = 0, c = e.childNodes; i < c.length; i++) {
			zoom_reset(c[i]);
		}
	}
	function zoom_child(e, x, ratio) {
		if (e.attributes != undefined) {
			if (e.attributes.x != undefined) {
				orig_save(e, "x");
				e.attributes.x.value = (parseFloat(e.attributes.x.value) - x - 10) * ratio + 10;
				if (e.tagName == "text")
					e.attributes.x.value = find_child(e.parentNode, "rect[x]").attributes.x.value + 3;
			}
			if (e.attributes.width != undefined) {
				orig_save(e, "width");
				e.attributes.width.value = parseFloat(e.attributes.width.value) * ratio;
			}
		}

		if (e.childNodes == undefined) return;
		for (var i = 0, c = e.childNodes; i < c.length; i++) {
			zoom_child(c[i], x - 10, ratio);
		}
	}
	function zoom_parent(e) {
		if (e.attributes) {
			if (e.attributes.x != undefined) {
				orig_save(e, "x");
				e.attributes.x.value = 10;
			}
			if (e.attributes.width != undefined) {
				orig_save(e, "width");
				e.attributes.width.value = parseInt(svg.width.baseVal.value) - (10 * 2);
			}
		}
		if (e.childNodes == undefined) return;
		for (var i = 0, c = e.childNodes; i < c.length; i++) {
			zoom_parent(c[i]);
		}
	}
	function zoom(node) {
		var attr = find_child(node, "rect").attributes;
		var width = parseFloat(attr.width.value);
		var xmin = parseFloat(attr.x.value);
		var xmax = parseFloat(xmin + width);
		var ymin = parseFloat(attr.y.value);
		var ratio = (svg.width.baseVal.value - 2 * 10) / width;

		// XXX: Workaround for JavaScript float issues (fix me)
		var fudge = 0.0001;

		unzoombtn.classList.remove("hide");

		var el = document.getElementById("frames").children;
		for (var i = 0; i < el.length; i++) {
			var e = el[i];
			var a = find_child(e, "rect").attributes;
			var ex = parseFloat(a.x.value);
			var ew = parseFloat(a.width.value);
			var upstack;
			// Is it an ancestor
			if (0 == 0) {
				upstack = parseFloat(a.y.value) > ymin;
			} else {
				upstack = parseFloat(a.y.value) < ymin;
			}
			if (upstack) {
				// Direct ancestor
				if (ex <= xmin && (ex+ew+fudge) >= xmax) {
					e.classList.add("parent");
					zoom_parent(e);
					update_text(e);
				}
				// not in current path
				else
					e.classList.add("hide");
			}
			// Children maybe
			else {
				// no common path
				if (ex < xmin || ex + fudge >= xmax) {
					e.classList.add("hide");
				}
				else {
					zoom_child(e, xmin, ratio);
					update_text(e);
				}
			}
		}
		search();
	}
	function unzoom() {
		unzoombtn.classList.add("hide");
		var el = document.getElementById("frames").children;
		for(var i = 0; i < el.length; i++) {
			el[i].classList.remove("parent");
			el[i].classList.remove("hide");
			zoom_reset(el[i]);
			update_text(el[i]);
		}
		search();
	}

	// search
	function toggle_ignorecase() {
		ignorecase = !ignorecase;
		if (ignorecase) {
			ignorecaseBtn.classList.add("show");
		} else {
			ignorecaseBtn.classList.remove("show");
		}
		reset_search();
		search();
	}
	function reset_search() {
		var el = document.querySelectorAll("#frames rect");
		for (var i = 0; i < el.length; i++) {
			orig_load(el[i], "fill")
		}
	}
	function search_prompt() {
		if (!searching) {
			var term = prompt("Enter a search term (regexp " +
			    "allowed, eg: ^ext4_)"
			    + (ignorecase ? ", ignoring case" : "")
			    + "\nPress Ctrl-i to toggle case sensitivity", "");
			if (term != null) {
				currentSearchTerm = term;
				search();
			}
		} else {
			reset_search();
			searching = 0;
			currentSearchTerm = null;
			searchbtn.classList.remove("show");
			searchbtn.firstChild.nodeValue = "Search"
			matchedtxt.classList.add("hide");
			matchedtxt.firstChild.nodeValue = ""
		}
	}
	function search(term) {
		if (currentSearchTerm === null) return;
		var term = currentSearchTerm;

		var re = new RegExp(term, ignorecase ? 'i' : '');
		var el = document.getElementById("frames").children;
		var matches = new Object();
		var maxwidth = 0;
		for (var i = 0; i < el.length; i++) {
			var e = el[i];
			var func = g_to_func(e);
			var rect = find_child(e, "rect");
			if (func == null || rect == null)
				continue;

			// Save max width. Only works as we have a root frame
			var w = parseFloat(rect.attributes.width.value);
			if (w > maxwidth)
				maxwidth = w;

			if (func.match(re)) {
				// highlight
				var x = parseFloat(rect.attributes.x.value);
				orig_save(rect, "fill");
				rect.attributes.fill.value = "rgb(230,0,230)";

				// remember matches
				if (matches[x] == undefined) {
					matches[x] = w;
				} else {
					if (w > matches[x]) {
						// overwrite with parent
						matches[x] = w;
					}
				}
				searching = 1;
			}
		}
		if (!searching)
			return;

		searchbtn.classList.add("show");
		searchbtn.firstChild.nodeValue = "Reset Search";

		// calculate percent matched, excluding vertical overlap
		var count = 0;
		var lastx = -1;
		var lastw = 0;
		var keys = Array();
		for (k in matches) {
			if (matches.hasOwnProperty(k))
				keys.push(k);
		}
		// sort the matched frames by their x location
		// ascending, then width descending
		keys.sort(function(a, b){
			return a - b;
		});
		// Step through frames saving only the biggest bottom-up frames
		// thanks to the sort order. This relies on the tree property
		// where children are always smaller than their parents.
		var fudge = 0.0001;	// JavaScript floating point
		for (var k in keys) {
			var x = parseFloat(keys[k]);
			var w = matches[keys[k]];
			if (x >= lastx + lastw - fudge) {
				count += w;
				lastx = x;
				lastw = w;
			}
		}
		// display matched percent
		matchedtxt.classList.remove("hide");
		var pct = 100 * count / maxwidth;
		if (pct != 100) pct = pct.toFixed(1)
		matchedtxt.firstChild.nodeValue = "Matched: " + pct + "%";
	}
]]>
</script>
<rect x="0.0" y="0" width="1200.0" height="470.0" fill="url(#background)"  />
<text id="title" x="600.00" y="24" >Flame Graph</text>
<text id="details" x="10.00" y="453" > </text>
<text id="unzoom" x="10.00" y="24" class="hide">Reset Zoom</text>
<text id="search" x="1090.00" y="24" >Search</text>
<text id="ignorecase" x="1174.00" y="24" >ic</text>
<text id="matched" x="1090.00" y="453" > </text>
<g id="frames">
<g >
<title>epoll_wait (45 samples, 58.44%)</title><rect x="485.1" y="389" width="689.6" height="15.0" fill="rgb(252,53,12)" rx="2" ry="2" />
<text  x="488.06" y="399.5" >epoll_wait</text>
</g>
<g >
<title>vfs_open (1 samples, 1.30%)</title><rect x="362.5" y="293" width="15.3" height="15.0" fill="rgb(240,171,33)" rx="2" ry="2" />
<text  x="365.47" y="303.5" ></text>
</g>
<g >
<title>vfs_read (8 samples, 10.39%)</title><rect x="56.0" y="309" width="122.6" height="15.0" fill="rgb(237,44,1)" rx="2" ry="2" />
<text  x="58.97" y="319.5" >vfs_read</text>
</g>
<g >
<title>__libc_read (9 samples, 11.69%)</title><rect x="40.6" y="373" width="138.0" height="15.0" fill="rgb(229,36,13)" rx="2" ry="2" />
<text  x="43.65" y="383.5" >__libc_read</text>
</g>
<g >
<title>[unknown] (2 samples, 2.60%)</title><rect x="10.0" y="373" width="30.6" height="15.0" fill="rgb(236,189,10)" rx="2" ry="2" />
<text  x="13.00" y="383.5" >[u..</text>
</g>
<g >
<title>load_balance (10 samples, 12.99%)</title><rect x="960.1" y="229" width="153.3" height="15.0" fill="rgb(209,43,52)" rx="2" ry="2" />
<text  x="963.13" y="239.5" >load_balance</text>
</g>
<g >
<title>x86_pmu_enable (1 samples, 1.30%)</title><rect x="944.8" y="85" width="15.3" height="15.0" fill="rgb(245,114,36)" rx="2" ry="2" />
<text  x="947.81" y="95.5" ></text>
</g>
<g >
<title>__perf_event_task_sched_in (27 samples, 35.06%)</title><rect x="531.0" y="229" width="413.8" height="15.0" fill="rgb(238,167,39)" rx="2" ry="2" />
<text  x="534.04" y="239.5" >__perf_event_task_sched_in</text>
</g>
<g >
<title>seq_printf (2 samples, 2.60%)</title><rect x="117.3" y="213" width="30.6" height="15.0" fill="rgb(232,143,18)" rx="2" ry="2" />
<text  x="120.27" y="223.5" >se..</text>
</g>
<g >
<title>do_syscall_64 (9 samples, 11.69%)</title><rect x="40.6" y="341" width="138.0" height="15.0" fill="rgb(208,182,22)" rx="2" ry="2" />
<text  x="43.65" y="351.5" >do_syscall_64</text>
</g>
<g >
<title>sys_openat (10 samples, 12.99%)</title><rect x="224.5" y="341" width="153.3" height="15.0" fill="rgb(242,114,10)" rx="2" ry="2" />
<text  x="227.55" y="351.5" >sys_openat</text>
</g>
<g >
<title>__task_pid_nr_ns (1 samples, 1.30%)</title><rect x="101.9" y="213" width="15.4" height="15.0" fill="rgb(218,89,28)" rx="2" ry="2" />
<text  x="104.95" y="223.5" ></text>
</g>
<g >
<title>find_busiest_group (10 samples, 12.99%)</title><rect x="960.1" y="213" width="153.3" height="15.0" fill="rgb(219,52,33)" rx="2" ry="2" />
<text  x="963.13" y="223.5" >find_busiest_group</text>
</g>
<g >
<title>databasesCron (2 samples, 2.60%)</title><rect x="454.4" y="389" width="30.7" height="15.0" fill="rgb(212,48,29)" rx="2" ry="2" />
<text  x="457.42" y="399.5" >da..</text>
</g>
<g >
<title>schedule (40 samples, 51.95%)</title><rect x="531.0" y="277" width="613.0" height="15.0" fill="rgb(206,15,3)" rx="2" ry="2" />
<text  x="534.04" y="287.5" >schedule</text>
</g>
<g >
<title>ep_poll (41 samples, 53.25%)</title><rect x="531.0" y="325" width="628.4" height="15.0" fill="rgb(250,47,10)" rx="2" ry="2" />
<text  x="534.04" y="335.5" >ep_poll</text>
</g>
<g >
<title>native_write_msr (19 samples, 24.68%)</title><rect x="653.6" y="165" width="291.2" height="15.0" fill="rgb(253,59,49)" rx="2" ry="2" />
<text  x="656.64" y="175.5" >native_write_msr</text>
</g>
<g >
<title>do_dentry_open (3 samples, 3.90%)</title><rect x="316.5" y="261" width="46.0" height="15.0" fill="rgb(215,64,43)" rx="2" ry="2" />
<text  x="319.49" y="271.5" >do_d..</text>
</g>
<g >
<title>activeExpireCycle (1 samples, 1.30%)</title><rect x="439.1" y="389" width="15.3" height="15.0" fill="rgb(207,223,23)" rx="2" ry="2" />
<text  x="442.09" y="399.5" ></text>
</g>
<g >
<title>default_do_nmi (1 samples, 1.30%)</title><rect x="546.4" y="165" width="15.3" height="15.0" fill="rgb(211,204,37)" rx="2" ry="2" />
<text  x="549.36" y="175.5" ></text>
</g>
<g >
<title>__open64 (11 samples, 14.29%)</title><rect x="209.2" y="389" width="168.6" height="15.0" fill="rgb(222,130,34)" rx="2" ry="2" />
<text  x="212.22" y="399.5" >__open64</text>
</g>
<g >
<title>__sched_text_start (40 samples, 51.95%)</title><rect x="531.0" y="261" width="613.0" height="15.0" fill="rgb(253,100,18)" rx="2" ry="2" />
<text  x="534.04" y="271.5" >__sched_text_start</text>
</g>
<g >
<title>beforeSleep (1 samples, 1.30%)</title><rect x="10.0" y="357" width="15.3" height="15.0" fill="rgb(239,48,16)" rx="2" ry="2" />
<text  x="13.00" y="367.5" ></text>
</g>
<g >
<title>entry_SYSCALL_64_after_hwframe (11 samples, 14.29%)</title><rect x="209.2" y="373" width="168.6" height="15.0" fill="rgb(240,64,21)" rx="2" ry="2" />
<text  x="212.22" y="383.5" >entry_SYSCALL_64_afte..</text>
</g>
<g >
<title>_find_next_bit (1 samples, 1.30%)</title><rect x="1098.1" y="181" width="15.3" height="15.0" fill="rgb(222,163,27)" rx="2" ry="2" />
<text  x="1101.05" y="191.5" ></text>
</g>
<g >
<title>calloc@plt (1 samples, 1.30%)</title><rect x="408.4" y="373" width="15.4" height="15.0" fill="rgb(248,126,27)" rx="2" ry="2" />
<text  x="411.44" y="383.5" ></text>
</g>
<g >
<title>entry_SYSCALL_64_after_hwframe (9 samples, 11.69%)</title><rect x="40.6" y="357" width="138.0" height="15.0" fill="rgb(227,173,46)" rx="2" ry="2" />
<text  x="43.65" y="367.5" >entry_SYSCALL_64_..</text>
</g>
<g >
<title>do_task_stat (8 samples, 10.39%)</title><rect x="56.0" y="229" width="122.6" height="15.0" fill="rgb(249,11,30)" rx="2" ry="2" />
<text  x="58.97" y="239.5" >do_task_stat</text>
</g>
<g >
<title>x86_pmu_enable (27 samples, 35.06%)</title><rect x="531.0" y="213" width="413.8" height="15.0" fill="rgb(211,185,4)" rx="2" ry="2" />
<text  x="534.04" y="223.5" >x86_pmu_enable</text>
</g>
<g >
<title>vfprintf (1 samples, 1.30%)</title><rect x="423.8" y="373" width="15.3" height="15.0" fill="rgb(247,125,20)" rx="2" ry="2" />
<text  x="426.77" y="383.5" ></text>
</g>
<g >
<title>schedule_hrtimeout_range_clock (40 samples, 51.95%)</title><rect x="531.0" y="293" width="613.0" height="15.0" fill="rgb(220,41,49)" rx="2" ry="2" />
<text  x="534.04" y="303.5" >schedule_hrtimeout_range_clock</text>
</g>
<g >
<title>put_dec (1 samples, 1.30%)</title><rect x="132.6" y="149" width="15.3" height="15.0" fill="rgb(216,208,43)" rx="2" ry="2" />
<text  x="135.60" y="159.5" ></text>
</g>
<g >
<title>vfs_open (3 samples, 3.90%)</title><rect x="316.5" y="277" width="46.0" height="15.0" fill="rgb(231,33,12)" rx="2" ry="2" />
<text  x="319.49" y="287.5" >vfs_..</text>
</g>
<g >
<title>tick_sched_handle (1 samples, 1.30%)</title><rect x="944.8" y="149" width="15.3" height="15.0" fill="rgb(254,107,38)" rx="2" ry="2" />
<text  x="947.81" y="159.5" ></text>
</g>
<g >
<title>intel_bts_enable_local (1 samples, 1.30%)</title><rect x="561.7" y="165" width="15.3" height="15.0" fill="rgb(235,92,31)" rx="2" ry="2" />
<text  x="564.69" y="175.5" ></text>
</g>
<g >
<title>intel_pmu_enable_all (1 samples, 1.30%)</title><rect x="944.8" y="69" width="15.3" height="15.0" fill="rgb(225,160,8)" rx="2" ry="2" />
<text  x="947.81" y="79.5" ></text>
</g>
<g >
<title>ktime_get_ts64 (1 samples, 1.30%)</title><rect x="1159.4" y="325" width="15.3" height="15.0" fill="rgb(213,167,10)" rx="2" ry="2" />
<text  x="1162.35" y="335.5" ></text>
</g>
<g >
<title>complete_walk (1 samples, 1.30%)</title><rect x="270.5" y="277" width="15.3" height="15.0" fill="rgb(243,123,28)" rx="2" ry="2" />
<text  x="273.52" y="287.5" ></text>
</g>
<g >
<title>number (1 samples, 1.30%)</title><rect x="132.6" y="165" width="15.3" height="15.0" fill="rgb(225,165,0)" rx="2" ry="2" />
<text  x="135.60" y="175.5" ></text>
</g>
<g >
<title>__fd_install (1 samples, 1.30%)</title><rect x="224.5" y="309" width="15.4" height="15.0" fill="rgb(241,224,4)" rx="2" ry="2" />
<text  x="227.55" y="319.5" ></text>
</g>
<g >
<title>smp_apic_timer_interrupt (1 samples, 1.30%)</title><rect x="944.8" y="213" width="15.3" height="15.0" fill="rgb(240,168,9)" rx="2" ry="2" />
<text  x="947.81" y="223.5" ></text>
</g>
<g >
<title>do_syscall_64 (11 samples, 14.29%)</title><rect x="209.2" y="357" width="168.6" height="15.0" fill="rgb(227,0,32)" rx="2" ry="2" />
<text  x="212.22" y="367.5" >do_syscall_64</text>
</g>
<g >
<title>epoll_wait (1 samples, 1.30%)</title><rect x="25.3" y="357" width="15.3" height="15.0" fill="rgb(222,173,36)" rx="2" ry="2" />
<text  x="28.32" y="367.5" ></text>
</g>
<g >
<title>vsnprintf (2 samples, 2.60%)</title><rect x="117.3" y="181" width="30.6" height="15.0" fill="rgb(225,23,19)" rx="2" ry="2" />
<text  x="120.27" y="191.5" >vs..</text>
</g>
<g >
<title>scheduler_tick (1 samples, 1.30%)</title><rect x="944.8" y="117" width="15.3" height="15.0" fill="rgb(251,189,4)" rx="2" ry="2" />
<text  x="947.81" y="127.5" ></text>
</g>
<g >
<title>lookup_fast (1 samples, 1.30%)</title><rect x="301.2" y="245" width="15.3" height="15.0" fill="rgb(238,188,36)" rx="2" ry="2" />
<text  x="304.17" y="255.5" ></text>
</g>
<g >
<title>tick_sched_timer (1 samples, 1.30%)</title><rect x="944.8" y="165" width="15.3" height="15.0" fill="rgb(215,94,12)" rx="2" ry="2" />
<text  x="947.81" y="175.5" ></text>
</g>
<g >
<title>redis-server (77 samples, 100.00%)</title><rect x="10.0" y="405" width="1180.0" height="15.0" fill="rgb(233,112,23)" rx="2" ry="2" />
<text  x="13.00" y="415.5" >redis-server</text>
</g>
<g >
<title>__intel_pmu_enable_all.constprop.23 (27 samples, 35.06%)</title><rect x="531.0" y="181" width="413.8" height="15.0" fill="rgb(213,99,50)" rx="2" ry="2" />
<text  x="534.04" y="191.5" >__intel_pmu_enable_all.constprop.23</text>
</g>
<g >
<title>entry_SYSCALL_64_after_hwframe (43 samples, 55.84%)</title><rect x="515.7" y="373" width="659.0" height="15.0" fill="rgb(247,12,39)" rx="2" ry="2" />
<text  x="518.71" y="383.5" >entry_SYSCALL_64_after_hwframe</text>
</g>
<g >
<title>num_to_str (1 samples, 1.30%)</title><rect x="163.2" y="197" width="15.4" height="15.0" fill="rgb(239,61,51)" rx="2" ry="2" />
<text  x="166.25" y="207.5" ></text>
</g>
<g >
<title>update_process_times (1 samples, 1.30%)</title><rect x="944.8" y="133" width="15.3" height="15.0" fill="rgb(206,168,19)" rx="2" ry="2" />
<text  x="947.81" y="143.5" ></text>
</g>
<g >
<title>rw_verify_area (1 samples, 1.30%)</title><rect x="40.6" y="309" width="15.4" height="15.0" fill="rgb(246,35,8)" rx="2" ry="2" />
<text  x="43.65" y="319.5" ></text>
</g>
<g >
<title>put_dec_trunc8 (1 samples, 1.30%)</title><rect x="132.6" y="133" width="15.3" height="15.0" fill="rgb(222,153,1)" rx="2" ry="2" />
<text  x="135.60" y="143.5" ></text>
</g>
<g >
<title>acpi_os_read_memory (1 samples, 1.30%)</title><rect x="531.0" y="165" width="15.4" height="15.0" fill="rgb(236,95,48)" rx="2" ry="2" />
<text  x="534.04" y="175.5" ></text>
</g>
<g >
<title>fsnotify (1 samples, 1.30%)</title><rect x="347.1" y="245" width="15.4" height="15.0" fill="rgb(213,72,45)" rx="2" ry="2" />
<text  x="350.14" y="255.5" ></text>
</g>
<g >
<title>schedule_hrtimeout_range (40 samples, 51.95%)</title><rect x="531.0" y="309" width="613.0" height="15.0" fill="rgb(210,209,54)" rx="2" ry="2" />
<text  x="534.04" y="319.5" >schedule_hrtimeout_range</text>
</g>
<g >
<title>pick_next_task_fair (12 samples, 15.58%)</title><rect x="960.1" y="245" width="183.9" height="15.0" fill="rgb(222,78,8)" rx="2" ry="2" />
<text  x="963.13" y="255.5" >pick_next_task_fair</text>
</g>
<g >
<title>__GI_strtoll (1 samples, 1.30%)</title><rect x="193.9" y="389" width="15.3" height="15.0" fill="rgb(241,19,2)" rx="2" ry="2" />
<text  x="196.90" y="399.5" ></text>
</g>
<g >
<title>seq_put_decimal_ull (2 samples, 2.60%)</title><rect x="147.9" y="213" width="30.7" height="15.0" fill="rgb(207,82,23)" rx="2" ry="2" />
<text  x="150.92" y="223.5" >se..</text>
</g>
<g >
<title>path_openat (8 samples, 10.39%)</title><rect x="239.9" y="293" width="122.6" height="15.0" fill="rgb(217,195,18)" rx="2" ry="2" />
<text  x="242.87" y="303.5" >path_openat</text>
</g>
<g >
<title>proc_single_show (8 samples, 10.39%)</title><rect x="56.0" y="261" width="122.6" height="15.0" fill="rgb(230,129,5)" rx="2" ry="2" />
<text  x="58.97" y="271.5" >proc_single_show</text>
</g>
<g >
<title>apic_timer_interrupt (1 samples, 1.30%)</title><rect x="944.8" y="229" width="15.3" height="15.0" fill="rgb(223,68,30)" rx="2" ry="2" />
<text  x="947.81" y="239.5" ></text>
</g>
<g >
<title>__intel_pmu_enable_all.constprop.23 (1 samples, 1.30%)</title><rect x="944.8" y="53" width="15.3" height="15.0" fill="rgb(208,129,53)" rx="2" ry="2" />
<text  x="947.81" y="63.5" ></text>
</g>
<g >
<title>seq_vprintf (2 samples, 2.60%)</title><rect x="117.3" y="197" width="30.6" height="15.0" fill="rgb(243,213,33)" rx="2" ry="2" />
<text  x="120.27" y="207.5" >se..</text>
</g>
<g >
<title>intel_pmu_enable_all (27 samples, 35.06%)</title><rect x="531.0" y="197" width="413.8" height="15.0" fill="rgb(208,13,47)" rx="2" ry="2" />
<text  x="534.04" y="207.5" >intel_pmu_enable_all</text>
</g>
<g >
<title>sys_epoll_wait (42 samples, 54.55%)</title><rect x="531.0" y="341" width="643.7" height="15.0" fill="rgb(247,97,36)" rx="2" ry="2" />
<text  x="534.04" y="351.5" >sys_epoll_wait</text>
</g>
<g >
<title>do_sys_open (1 samples, 1.30%)</title><rect x="209.2" y="341" width="15.3" height="15.0" fill="rgb(237,9,5)" rx="2" ry="2" />
<text  x="212.22" y="351.5" ></text>
</g>
<g >
<title>[unknown] (12 samples, 15.58%)</title><rect x="10.0" y="389" width="183.9" height="15.0" fill="rgb(207,16,26)" rx="2" ry="2" />
<text  x="13.00" y="399.5" >[unknown]</text>
</g>
<g >
<title>all (77 samples, 100%)</title><rect x="10.0" y="421" width="1180.0" height="15.0" fill="rgb(242,220,52)" rx="2" ry="2" />
<text  x="13.00" y="431.5" ></text>
</g>
<g >
<title>seq_read (8 samples, 10.39%)</title><rect x="56.0" y="277" width="122.6" height="15.0" fill="rgb(227,132,38)" rx="2" ry="2" />
<text  x="58.97" y="287.5" >seq_read</text>
</g>
<g >
<title>update_blocked_averages (2 samples, 2.60%)</title><rect x="1113.4" y="229" width="30.6" height="15.0" fill="rgb(234,19,3)" rx="2" ry="2" />
<text  x="1116.38" y="239.5" >up..</text>
</g>
<g >
<title>__vsnprintf_chk (4 samples, 5.19%)</title><rect x="377.8" y="389" width="61.3" height="15.0" fill="rgb(218,154,51)" rx="2" ry="2" />
<text  x="380.79" y="399.5" >__vsnp..</text>
</g>
<g >
<title>proc_tgid_stat (8 samples, 10.39%)</title><rect x="56.0" y="245" width="122.6" height="15.0" fill="rgb(232,215,54)" rx="2" ry="2" />
<text  x="58.97" y="255.5" >proc_tgid_stat</text>
</g>
<g >
<title>select_estimate_accuracy (1 samples, 1.30%)</title><rect x="1144.0" y="309" width="15.4" height="15.0" fill="rgb(222,192,27)" rx="2" ry="2" />
<text  x="1147.03" y="319.5" ></text>
</g>
<g >
<title>hrtimer_interrupt (1 samples, 1.30%)</title><rect x="944.8" y="197" width="15.3" height="15.0" fill="rgb(232,173,24)" rx="2" ry="2" />
<text  x="947.81" y="207.5" ></text>
</g>
<g >
<title>link_path_walk (2 samples, 2.60%)</title><rect x="285.8" y="277" width="30.7" height="15.0" fill="rgb(238,64,8)" rx="2" ry="2" />
<text  x="288.84" y="287.5" >li..</text>
</g>
<g >
<title>do_syscall_64 (42 samples, 54.55%)</title><rect x="531.0" y="357" width="643.7" height="15.0" fill="rgb(244,158,12)" rx="2" ry="2" />
<text  x="534.04" y="367.5" >do_syscall_64</text>
</g>
<g >
<title>do_filp_open (9 samples, 11.69%)</title><rect x="239.9" y="309" width="137.9" height="15.0" fill="rgb(221,157,32)" rx="2" ry="2" />
<text  x="242.87" y="319.5" >do_filp_open</text>
</g>
<g >
<title>__inode_permission (1 samples, 1.30%)</title><rect x="285.8" y="245" width="15.4" height="15.0" fill="rgb(208,86,53)" rx="2" ry="2" />
<text  x="288.84" y="255.5" ></text>
</g>
<g >
<title>native_write_msr (1 samples, 1.30%)</title><rect x="944.8" y="37" width="15.3" height="15.0" fill="rgb(230,185,39)" rx="2" ry="2" />
<text  x="947.81" y="47.5" ></text>
</g>
<g >
<title>native_sched_clock (3 samples, 3.90%)</title><rect x="607.7" y="165" width="45.9" height="15.0" fill="rgb(252,118,14)" rx="2" ry="2" />
<text  x="610.66" y="175.5" >nati..</text>
</g>
<g >
<title>inode_permission (1 samples, 1.30%)</title><rect x="285.8" y="261" width="15.4" height="15.0" fill="rgb(239,6,24)" rx="2" ry="2" />
<text  x="288.84" y="271.5" ></text>
</g>
<g >
<title>sys_read (9 samples, 11.69%)</title><rect x="40.6" y="325" width="138.0" height="15.0" fill="rgb(222,21,3)" rx="2" ry="2" />
<text  x="43.65" y="335.5" >sys_read</text>
</g>
<g >
<title>generic_permission (1 samples, 1.30%)</title><rect x="285.8" y="229" width="15.4" height="15.0" fill="rgb(252,95,45)" rx="2" ry="2" />
<text  x="288.84" y="239.5" ></text>
</g>
<g >
<title>[unknown] (1 samples, 1.30%)</title><rect x="377.8" y="373" width="15.3" height="15.0" fill="rgb(216,82,54)" rx="2" ry="2" />
<text  x="380.79" y="383.5" ></text>
</g>
<g >
<title>walk_component (1 samples, 1.30%)</title><rect x="301.2" y="261" width="15.3" height="15.0" fill="rgb(225,207,45)" rx="2" ry="2" />
<text  x="304.17" y="271.5" ></text>
</g>
<g >
<title>__hrtimer_run_queues (1 samples, 1.30%)</title><rect x="944.8" y="181" width="15.3" height="15.0" fill="rgb(243,72,4)" rx="2" ry="2" />
<text  x="947.81" y="191.5" ></text>
</g>
<g >
<title>__strchrnul_avx2 (1 samples, 1.30%)</title><rect x="393.1" y="373" width="15.3" height="15.0" fill="rgb(242,67,24)" rx="2" ry="2" />
<text  x="396.12" y="383.5" ></text>
</g>
<g >
<title>__vfs_read (8 samples, 10.39%)</title><rect x="56.0" y="293" width="122.6" height="15.0" fill="rgb(242,79,34)" rx="2" ry="2" />
<text  x="58.97" y="303.5" >__vfs_read</text>
</g>
<g >
<title>cpumask_next_and (2 samples, 2.60%)</title><rect x="1082.7" y="197" width="30.7" height="15.0" fill="rgb(210,209,46)" rx="2" ry="2" />
<text  x="1085.73" y="207.5" >cp..</text>
</g>
<g >
<title>get_pid_task (1 samples, 1.30%)</title><rect x="301.2" y="213" width="15.3" height="15.0" fill="rgb(234,80,14)" rx="2" ry="2" />
<text  x="304.17" y="223.5" ></text>
</g>
<g >
<title>trackInstantaneousMetric (1 samples, 1.30%)</title><rect x="178.6" y="373" width="15.3" height="15.0" fill="rgb(222,8,14)" rx="2" ry="2" />
<text  x="181.57" y="383.5" ></text>
</g>
<g >
<title>perf_event_task_tick (1 samples, 1.30%)</title><rect x="944.8" y="101" width="15.3" height="15.0" fill="rgb(207,3,15)" rx="2" ry="2" />
<text  x="947.81" y="111.5" ></text>
</g>
<g >
<title>format_decode (1 samples, 1.30%)</title><rect x="117.3" y="165" width="15.3" height="15.0" fill="rgb(246,162,24)" rx="2" ry="2" />
<text  x="120.27" y="175.5" ></text>
</g>
<g >
<title>do_sys_open (10 samples, 12.99%)</title><rect x="224.5" y="325" width="153.3" height="15.0" fill="rgb(240,177,26)" rx="2" ry="2" />
<text  x="227.55" y="335.5" >do_sys_open</text>
</g>
<g >
<title>intel_pmu_handle_irq (2 samples, 2.60%)</title><rect x="577.0" y="165" width="30.7" height="15.0" fill="rgb(246,199,38)" rx="2" ry="2" />
<text  x="580.01" y="175.5" >in..</text>
</g>
<g >
<title>finish_task_switch (28 samples, 36.36%)</title><rect x="531.0" y="245" width="429.1" height="15.0" fill="rgb(228,98,2)" rx="2" ry="2" />
<text  x="534.04" y="255.5" >finish_task_switch</text>
</g>
<g >
<title>d_revalidate.part.18 (1 samples, 1.30%)</title><rect x="301.2" y="229" width="15.3" height="15.0" fill="rgb(247,172,36)" rx="2" ry="2" />
<text  x="304.17" y="239.5" ></text>
</g>
<g >
<title>incrementallyRehash (1 samples, 1.30%)</title><rect x="1174.7" y="389" width="15.3" height="15.0" fill="rgb(208,153,39)" rx="2" ry="2" />
<text  x="1177.68" y="399.5" ></text>
</g>
</g>
</svg>
