<?xml version="1.0" standalone="no"?>
<!DOCTYPE svg PUBLIC "-//W3C//DTD SVG 1.1//EN" "http://www.w3.org/Graphics/SVG/1.1/DTD/svg11.dtd">
<svg version="1.1" width="1200" height="342" onload="init(evt)" viewBox="0 0 1200 342" xmlns="http://www.w3.org/2000/svg" xmlns:xlink="http://www.w3.org/1999/xlink">
<!-- Flame graph stack visualization. See https://github.com/brendangregg/FlameGraph for latest version, and http://www.brendangregg.com/flamegraphs.html for examples. -->
<!-- NOTES:  -->
<defs>
	<linearGradient id="background" y1="0" y2="1" x1="0" x2="0" >
		<stop stop-color="#eeeeee" offset="5%" />
		<stop stop-color="#eeeeb0" offset="95%" />
	</linearGradient>
</defs>
<style type="text/css">
	text { font-family:Verdana; font-size:12px; fill:rgb(0,0,0); }
	#search, #ignorecase { opacity:0.1; cursor:pointer; }
	#search:hover, #search.show, #ignorecase:hover, #ignorecase.show { opacity:1; }
	#subtitle { text-anchor:middle; font-color:rgb(160,160,160); }
	#title { text-anchor:middle; font-size:17px}
	#unzoom { cursor:pointer; }
	#frames > *:hover { stroke:black; stroke-width:0.5; cursor:pointer; }
	.hide { display:none; }
	.parent { opacity:0.5; }
</style>
<script type="text/ecmascript">
<![CDATA[
	"use strict";
	var details, searchbtn, unzoombtn, matchedtxt, svg, searching, currentSearchTerm, ignorecase, ignorecaseBtn;
	function init(evt) {
		details = document.getElementById("details").firstChild;
		searchbtn = document.getElementById("search");
		ignorecaseBtn = document.getElementById("ignorecase");
		unzoombtn = document.getElementById("unzoom");
		matchedtxt = document.getElementById("matched");
		svg = document.getElementsByTagName("svg")[0];
		searching = 0;
		currentSearchTerm = null;
	}

	window.addEventListener("click", function(e) {
		var target = find_group(e.target);
		if (target) {
			if (target.nodeName == "a") {
				if (e.ctrlKey === false) return;
				e.preventDefault();
			}
			if (target.classList.contains("parent")) unzoom();
			zoom(target);
		}
		else if (e.target.id == "unzoom") unzoom();
		else if (e.target.id == "search") search_prompt();
		else if (e.target.id == "ignorecase") toggle_ignorecase();
	}, false)

	// mouse-over for info
	// show
	window.addEventListener("mouseover", function(e) {
		var target = find_group(e.target);
		if (target) details.nodeValue = "Function: " + g_to_text(target);
	}, false)

	// clear
	window.addEventListener("mouseout", function(e) {
		var target = find_group(e.target);
		if (target) details.nodeValue = ' ';
	}, false)

	// ctrl-F for search
	window.addEventListener("keydown",function (e) {
		if (e.keyCode === 114 || (e.ctrlKey && e.keyCode === 70)) {
			e.preventDefault();
			search_prompt();
		}
	}, false)

	// ctrl-I to toggle case-sensitive search
	window.addEventListener("keydown",function (e) {
		if (e.ctrlKey && e.keyCode === 73) {
			e.preventDefault();
			toggle_ignorecase();
		}
	}, false)

	// functions
	function find_child(node, selector) {
		var children = node.querySelectorAll(selector);
		if (children.length) return children[0];
		return;
	}
	function find_group(node) {
		var parent = node.parentElement;
		if (!parent) return;
		if (parent.id == "frames") return node;
		return find_group(parent);
	}
	function orig_save(e, attr, val) {
		if (e.attributes["_orig_" + attr] != undefined) return;
		if (e.attributes[attr] == undefined) return;
		if (val == undefined) val = e.attributes[attr].value;
		e.setAttribute("_orig_" + attr, val);
	}
	function orig_load(e, attr) {
		if (e.attributes["_orig_"+attr] == undefined) return;
		e.attributes[attr].value = e.attributes["_orig_" + attr].value;
		e.removeAttribute("_orig_"+attr);
	}
	function g_to_text(e) {
		var text = find_child(e, "title").firstChild.nodeValue;
		return (text)
	}
	function g_to_func(e) {
		var func = g_to_text(e);
		// if there's any manipulation we want to do to the function
		// name before it's searched, do it here before returning.
		return (func);
	}
	function update_text(e) {
		var r = find_child(e, "rect");
		var t = find_child(e, "text");
		var w = parseFloat(r.attributes.width.value) -3;
		var txt = find_child(e, "title").textContent.replace(/\([^(]*\)$/,"");
		t.attributes.x.value = parseFloat(r.attributes.x.value) + 3;

		// Smaller than this size won't fit anything
		if (w < 2 * 12 * 0.59) {
			t.textContent = "";
			return;
		}

		t.textContent = txt;
		// Fit in full text width
		if (/^ *$/.test(txt) || t.getSubStringLength(0, txt.length) < w)
			return;

		for (var x = txt.length - 2; x > 0; x--) {
			if (t.getSubStringLength(0, x + 2) <= w) {
				t.textContent = txt.substring(0, x) + "..";
				return;
			}
		}
		t.textContent = "";
	}

	// zoom
	function zoom_reset(e) {
		if (e.attributes != undefined) {
			orig_load(e, "x");
			orig_load(e, "width");
		}
		if (e.childNodes == undefined) return;
		for (var i = 0, c = e.childNodes; i < c.length; i++) {
			zoom_reset(c[i]);
		}
	}
	function zoom_child(e, x, ratio) {
		if (e.attributes != undefined) {
			if (e.attributes.x != undefined) {
				orig_save(e, "x");
				e.attributes.x.value = (parseFloat(e.attributes.x.value) - x - 10) * ratio + 10;
				if (e.tagName == "text")
					e.attributes.x.value = find_child(e.parentNode, "rect[x]").attributes.x.value + 3;
			}
			if (e.attributes.width != undefined) {
				orig_save(e, "width");
				e.attributes.width.value = parseFloat(e.attributes.width.value) * ratio;
			}
		}

		if (e.childNodes == undefined) return;
		for (var i = 0, c = e.childNodes; i < c.length; i++) {
			zoom_child(c[i], x - 10, ratio);
		}
	}
	function zoom_parent(e) {
		if (e.attributes) {
			if (e.attributes.x != undefined) {
				orig_save(e, "x");
				e.attributes.x.value = 10;
			}
			if (e.attributes.width != undefined) {
				orig_save(e, "width");
				e.attributes.width.value = parseInt(svg.width.baseVal.value) - (10 * 2);
			}
		}
		if (e.childNodes == undefined) return;
		for (var i = 0, c = e.childNodes; i < c.length; i++) {
			zoom_parent(c[i]);
		}
	}
	function zoom(node) {
		var attr = find_child(node, "rect").attributes;
		var width = parseFloat(attr.width.value);
		var xmin = parseFloat(attr.x.value);
		var xmax = parseFloat(xmin + width);
		var ymin = parseFloat(attr.y.value);
		var ratio = (svg.width.baseVal.value - 2 * 10) / width;

		// XXX: Workaround for JavaScript float issues (fix me)
		var fudge = 0.0001;

		unzoombtn.classList.remove("hide");

		var el = document.getElementById("frames").children;
		for (var i = 0; i < el.length; i++) {
			var e = el[i];
			var a = find_child(e, "rect").attributes;
			var ex = parseFloat(a.x.value);
			var ew = parseFloat(a.width.value);
			var upstack;
			// Is it an ancestor
			if (0 == 0) {
				upstack = parseFloat(a.y.value) > ymin;
			} else {
				upstack = parseFloat(a.y.value) < ymin;
			}
			if (upstack) {
				// Direct ancestor
				if (ex <= xmin && (ex+ew+fudge) >= xmax) {
					e.classList.add("parent");
					zoom_parent(e);
					update_text(e);
				}
				// not in current path
				else
					e.classList.add("hide");
			}
			// Children maybe
			else {
				// no common path
				if (ex < xmin || ex + fudge >= xmax) {
					e.classList.add("hide");
				}
				else {
					zoom_child(e, xmin, ratio);
					update_text(e);
				}
			}
		}
		search();
	}
	function unzoom() {
		unzoombtn.classList.add("hide");
		var el = document.getElementById("frames").children;
		for(var i = 0; i < el.length; i++) {
			el[i].classList.remove("parent");
			el[i].classList.remove("hide");
			zoom_reset(el[i]);
			update_text(el[i]);
		}
		search();
	}

	// search
	function toggle_ignorecase() {
		ignorecase = !ignorecase;
		if (ignorecase) {
			ignorecaseBtn.classList.add("show");
		} else {
			ignorecaseBtn.classList.remove("show");
		}
		reset_search();
		search();
	}
	function reset_search() {
		var el = document.querySelectorAll("#frames rect");
		for (var i = 0; i < el.length; i++) {
			orig_load(el[i], "fill")
		}
	}
	function search_prompt() {
		if (!searching) {
			var term = prompt("Enter a search term (regexp " +
			    "allowed, eg: ^ext4_)"
			    + (ignorecase ? ", ignoring case" : "")
			    + "\nPress Ctrl-i to toggle case sensitivity", "");
			if (term != null) {
				currentSearchTerm = term;
				search();
			}
		} else {
			reset_search();
			searching = 0;
			currentSearchTerm = null;
			searchbtn.classList.remove("show");
			searchbtn.firstChild.nodeValue = "Search"
			matchedtxt.classList.add("hide");
			matchedtxt.firstChild.nodeValue = ""
		}
	}
	function search(term) {
		if (currentSearchTerm === null) return;
		var term = currentSearchTerm;

		var re = new RegExp(term, ignorecase ? 'i' : '');
		var el = document.getElementById("frames").children;
		var matches = new Object();
		var maxwidth = 0;
		for (var i = 0; i < el.length; i++) {
			var e = el[i];
			var func = g_to_func(e);
			var rect = find_child(e, "rect");
			if (func == null || rect == null)
				continue;

			// Save max width. Only works as we have a root frame
			var w = parseFloat(rect.attributes.width.value);
			if (w > maxwidth)
				maxwidth = w;

			if (func.match(re)) {
				// highlight
				var x = parseFloat(rect.attributes.x.value);
				orig_save(rect, "fill");
				rect.attributes.fill.value = "rgb(230,0,230)";

				// remember matches
				if (matches[x] == undefined) {
					matches[x] = w;
				} else {
					if (w > matches[x]) {
						// overwrite with parent
						matches[x] = w;
					}
				}
				searching = 1;
			}
		}
		if (!searching)
			return;

		searchbtn.classList.add("show");
		searchbtn.firstChild.nodeValue = "Reset Search";

		// calculate percent matched, excluding vertical overlap
		var count = 0;
		var lastx = -1;
		var lastw = 0;
		var keys = Array();
		for (k in matches) {
			if (matches.hasOwnProperty(k))
				keys.push(k);
		}
		// sort the matched frames by their x location
		// ascending, then width descending
		keys.sort(function(a, b){
			return a - b;
		});
		// Step through frames saving only the biggest bottom-up frames
		// thanks to the sort order. This relies on the tree property
		// where children are always smaller than their parents.
		var fudge = 0.0001;	// JavaScript floating point
		for (var k in keys) {
			var x = parseFloat(keys[k]);
			var w = matches[keys[k]];
			if (x >= lastx + lastw - fudge) {
				count += w;
				lastx = x;
				lastw = w;
			}
		}
		// display matched percent
		matchedtxt.classList.remove("hide");
		var pct = 100 * count / maxwidth;
		if (pct != 100) pct = pct.toFixed(1)
		matchedtxt.firstChild.nodeValue = "Matched: " + pct + "%";
	}
]]>
</script>
<rect x="0.0" y="0" width="1200.0" height="342.0" fill="url(#background)"  />
<text id="title" x="600.00" y="24" >Flame Graph</text>
<text id="details" x="10.00" y="325" > </text>
<text id="unzoom" x="10.00" y="24" class="hide">Reset Zoom</text>
<text id="search" x="1090.00" y="24" >Search</text>
<text id="ignorecase" x="1174.00" y="24" >ic</text>
<text id="matched" x="1090.00" y="325" > </text>
<g id="frames">
<g >
<title>vfs_read (5 samples, 7.69%)</title><rect x="118.9" y="181" width="90.8" height="15.0" fill="rgb(226,18,8)" rx="2" ry="2" />
<text  x="121.92" y="191.5" >vfs_read</text>
</g>
<g >
<title>update_curr (1 samples, 1.54%)</title><rect x="409.4" y="69" width="18.1" height="15.0" fill="rgb(254,38,24)" rx="2" ry="2" />
<text  x="412.38" y="79.5" ></text>
</g>
<g >
<title>schedule (40 samples, 61.54%)</title><rect x="409.4" y="149" width="726.1" height="15.0" fill="rgb(254,126,26)" rx="2" ry="2" />
<text  x="412.38" y="159.5" >schedule</text>
</g>
<g >
<title>nmi_cpu_backtrace (1 samples, 1.54%)</title><rect x="972.2" y="37" width="18.1" height="15.0" fill="rgb(217,145,32)" rx="2" ry="2" />
<text  x="975.15" y="47.5" ></text>
</g>
<g >
<title>nmi_handle (1 samples, 1.54%)</title><rect x="990.3" y="37" width="18.2" height="15.0" fill="rgb(211,115,18)" rx="2" ry="2" />
<text  x="993.31" y="47.5" ></text>
</g>
<g >
<title>[unknown] (11 samples, 16.92%)</title><rect x="10.0" y="261" width="199.7" height="15.0" fill="rgb(240,176,50)" rx="2" ry="2" />
<text  x="13.00" y="271.5" >[unknown]</text>
</g>
<g >
<title>hrtimer_start_range_ns (2 samples, 3.08%)</title><rect x="373.1" y="149" width="36.3" height="15.0" fill="rgb(246,25,42)" rx="2" ry="2" />
<text  x="376.08" y="159.5" >hrt..</text>
</g>
<g >
<title>seq_read (5 samples, 7.69%)</title><rect x="118.9" y="149" width="90.8" height="15.0" fill="rgb(238,154,6)" rx="2" ry="2" />
<text  x="121.92" y="159.5" >seq_read</text>
</g>
<g >
<title>native_write_cr2 (1 samples, 1.54%)</title><rect x="554.6" y="37" width="18.2" height="15.0" fill="rgb(237,222,37)" rx="2" ry="2" />
<text  x="557.62" y="47.5" ></text>
</g>
<g >
<title>do_syscall_64 (7 samples, 10.77%)</title><rect x="209.7" y="229" width="127.1" height="15.0" fill="rgb(242,119,24)" rx="2" ry="2" />
<text  x="212.69" y="239.5" >do_syscall_64</text>
</g>
<g >
<title>native_write_msr (22 samples, 33.85%)</title><rect x="572.8" y="37" width="399.4" height="15.0" fill="rgb(208,211,17)" rx="2" ry="2" />
<text  x="575.77" y="47.5" >native_write_msr</text>
</g>
<g >
<title>__delayacct_blkio_ticks (2 samples, 3.08%)</title><rect x="155.2" y="85" width="36.3" height="15.0" fill="rgb(234,129,17)" rx="2" ry="2" />
<text  x="158.23" y="95.5" >__d..</text>
</g>
<g >
<title>dequeue_entity (1 samples, 1.54%)</title><rect x="409.4" y="85" width="18.1" height="15.0" fill="rgb(246,48,25)" rx="2" ry="2" />
<text  x="412.38" y="95.5" ></text>
</g>
<g >
<title>memset_erms (1 samples, 1.54%)</title><rect x="246.0" y="117" width="18.2" height="15.0" fill="rgb(209,180,32)" rx="2" ry="2" />
<text  x="249.00" y="127.5" ></text>
</g>
<g >
<title>select_estimate_accuracy (1 samples, 1.54%)</title><rect x="1135.5" y="181" width="18.2" height="15.0" fill="rgb(215,27,22)" rx="2" ry="2" />
<text  x="1138.54" y="191.5" ></text>
</g>
<g >
<title>ep_poll (43 samples, 66.15%)</title><rect x="373.1" y="197" width="780.6" height="15.0" fill="rgb(247,27,11)" rx="2" ry="2" />
<text  x="376.08" y="207.5" >ep_poll</text>
</g>
<g >
<title>proc_single_show (4 samples, 6.15%)</title><rect x="137.1" y="133" width="72.6" height="15.0" fill="rgb(254,26,50)" rx="2" ry="2" />
<text  x="140.08" y="143.5" >proc_sin..</text>
</g>
<g >
<title>security_file_alloc (1 samples, 1.54%)</title><rect x="246.0" y="133" width="18.2" height="15.0" fill="rgb(228,148,8)" rx="2" ry="2" />
<text  x="249.00" y="143.5" ></text>
</g>
<g >
<title>walk_component (2 samples, 3.08%)</title><rect x="282.3" y="133" width="36.3" height="15.0" fill="rgb(214,202,33)" rx="2" ry="2" />
<text  x="285.31" y="143.5" >wal..</text>
</g>
<g >
<title>redis-server (65 samples, 100.00%)</title><rect x="10.0" y="277" width="1180.0" height="15.0" fill="rgb(233,187,19)" rx="2" ry="2" />
<text  x="13.00" y="287.5" >redis-server</text>
</g>
<g >
<title>d_revalidate.part.18 (1 samples, 1.54%)</title><rect x="300.5" y="101" width="18.1" height="15.0" fill="rgb(252,44,22)" rx="2" ry="2" />
<text  x="303.46" y="111.5" ></text>
</g>
<g >
<title>native_write_msr (1 samples, 1.54%)</title><rect x="1008.5" y="53" width="18.1" height="15.0" fill="rgb(243,214,34)" rx="2" ry="2" />
<text  x="1011.46" y="63.5" ></text>
</g>
<g >
<title>find_busiest_group (6 samples, 9.23%)</title><rect x="1026.6" y="85" width="108.9" height="15.0" fill="rgb(234,163,45)" rx="2" ry="2" />
<text  x="1029.62" y="95.5" >find_busiest_..</text>
</g>
<g >
<title>strncpy_from_user (1 samples, 1.54%)</title><rect x="318.6" y="149" width="18.2" height="15.0" fill="rgb(223,214,38)" rx="2" ry="2" />
<text  x="321.62" y="159.5" ></text>
</g>
<g >
<title>do_sys_open (7 samples, 10.77%)</title><rect x="209.7" y="197" width="127.1" height="15.0" fill="rgb(240,102,23)" rx="2" ry="2" />
<text  x="212.69" y="207.5" >do_sys_open</text>
</g>
<g >
<title>vfprintf (1 samples, 1.54%)</title><rect x="354.9" y="245" width="18.2" height="15.0" fill="rgb(253,47,15)" rx="2" ry="2" />
<text  x="357.92" y="255.5" ></text>
</g>
<g >
<title>x86_pmu_enable (33 samples, 50.77%)</title><rect x="427.5" y="85" width="599.1" height="15.0" fill="rgb(208,119,40)" rx="2" ry="2" />
<text  x="430.54" y="95.5" >x86_pmu_enable</text>
</g>
<g >
<title>__intel_pmu_enable_all.constprop.23 (1 samples, 1.54%)</title><rect x="427.5" y="37" width="18.2" height="15.0" fill="rgb(228,25,40)" rx="2" ry="2" />
<text  x="430.54" y="47.5" ></text>
</g>
<g >
<title>__d_lookup_rcu (1 samples, 1.54%)</title><rect x="282.3" y="101" width="18.2" height="15.0" fill="rgb(240,189,11)" rx="2" ry="2" />
<text  x="285.31" y="111.5" ></text>
</g>
<g >
<title>do_filp_open (6 samples, 9.23%)</title><rect x="209.7" y="181" width="108.9" height="15.0" fill="rgb(206,174,21)" rx="2" ry="2" />
<text  x="212.69" y="191.5" >do_filp_open</text>
</g>
<g >
<title>__check_object_size (1 samples, 1.54%)</title><rect x="318.6" y="133" width="18.2" height="15.0" fill="rgb(242,32,40)" rx="2" ry="2" />
<text  x="321.62" y="143.5" ></text>
</g>
<g >
<title>lock_hrtimer_base.isra.19 (1 samples, 1.54%)</title><rect x="391.2" y="133" width="18.2" height="15.0" fill="rgb(232,15,42)" rx="2" ry="2" />
<text  x="394.23" y="143.5" ></text>
</g>
<g >
<title>sys_epoll_wait (45 samples, 69.23%)</title><rect x="373.1" y="213" width="816.9" height="15.0" fill="rgb(244,170,46)" rx="2" ry="2" />
<text  x="376.08" y="223.5" >sys_epoll_wait</text>
</g>
<g >
<title>epoll_wait (45 samples, 69.23%)</title><rect x="373.1" y="261" width="816.9" height="15.0" fill="rgb(253,184,54)" rx="2" ry="2" />
<text  x="376.08" y="271.5" >epoll_wait</text>
</g>
<g >
<title>acpi_os_read_memory (1 samples, 1.54%)</title><rect x="445.7" y="37" width="18.1" height="15.0" fill="rgb(221,126,27)" rx="2" ry="2" />
<text  x="448.69" y="47.5" ></text>
</g>
<g >
<title>proc_tgid_stat (4 samples, 6.15%)</title><rect x="137.1" y="117" width="72.6" height="15.0" fill="rgb(252,145,24)" rx="2" ry="2" />
<text  x="140.08" y="127.5" >proc_tgi..</text>
</g>
<g >
<title>getname (1 samples, 1.54%)</title><rect x="318.6" y="181" width="18.2" height="15.0" fill="rgb(214,2,21)" rx="2" ry="2" />
<text  x="321.62" y="191.5" ></text>
</g>
<g >
<title>entry_SYSCALL_64_after_hwframe (8 samples, 12.31%)</title><rect x="209.7" y="245" width="145.2" height="15.0" fill="rgb(246,33,41)" rx="2" ry="2" />
<text  x="212.69" y="255.5" >entry_SYSCALL_64_a..</text>
</g>
<g >
<title>pid_revalidate (1 samples, 1.54%)</title><rect x="300.5" y="85" width="18.1" height="15.0" fill="rgb(220,54,2)" rx="2" ry="2" />
<text  x="303.46" y="95.5" ></text>
</g>
<g >
<title>get_pid_task (1 samples, 1.54%)</title><rect x="300.5" y="69" width="18.1" height="15.0" fill="rgb(252,47,34)" rx="2" ry="2" />
<text  x="303.46" y="79.5" ></text>
</g>
<g >
<title>default_do_nmi (1 samples, 1.54%)</title><rect x="463.8" y="37" width="18.2" height="15.0" fill="rgb(221,66,12)" rx="2" ry="2" />
<text  x="466.85" y="47.5" ></text>
</g>
<g >
<title>sys_read (5 samples, 7.69%)</title><rect x="118.9" y="197" width="90.8" height="15.0" fill="rgb(219,150,1)" rx="2" ry="2" />
<text  x="121.92" y="207.5" >sys_read</text>
</g>
<g >
<title>__libc_read (5 samples, 7.69%)</title><rect x="118.9" y="245" width="90.8" height="15.0" fill="rgb(240,66,19)" rx="2" ry="2" />
<text  x="121.92" y="255.5" >__libc_read</text>
</g>
<g >
<title>fput (2 samples, 3.08%)</title><rect x="1153.7" y="197" width="36.3" height="15.0" fill="rgb(225,98,23)" rx="2" ry="2" />
<text  x="1156.69" y="207.5" >fput</text>
</g>
<g >
<title>intel_bts_enable_local (1 samples, 1.54%)</title><rect x="482.0" y="37" width="18.2" height="15.0" fill="rgb(245,17,6)" rx="2" ry="2" />
<text  x="485.00" y="47.5" ></text>
</g>
<g >
<title>do_syscall_64 (5 samples, 7.69%)</title><rect x="118.9" y="213" width="90.8" height="15.0" fill="rgb(208,60,24)" rx="2" ry="2" />
<text  x="121.92" y="223.5" >do_syscall..</text>
</g>
<g >
<title>entry_SYSCALL_64_after_hwframe (45 samples, 69.23%)</title><rect x="373.1" y="245" width="816.9" height="15.0" fill="rgb(208,139,51)" rx="2" ry="2" />
<text  x="376.08" y="255.5" >entry_SYSCALL_64_after_hwframe</text>
</g>
<g >
<title>path_openat (6 samples, 9.23%)</title><rect x="209.7" y="165" width="108.9" height="15.0" fill="rgb(241,31,49)" rx="2" ry="2" />
<text  x="212.69" y="175.5" >path_openat</text>
</g>
<g >
<title>deactivate_task (1 samples, 1.54%)</title><rect x="409.4" y="117" width="18.1" height="15.0" fill="rgb(248,111,2)" rx="2" ry="2" />
<text  x="412.38" y="127.5" ></text>
</g>
<g >
<title>schedule_hrtimeout_range (42 samples, 64.62%)</title><rect x="373.1" y="181" width="762.4" height="15.0" fill="rgb(209,228,2)" rx="2" ry="2" />
<text  x="376.08" y="191.5" >schedule_hrtimeout_range</text>
</g>
<g >
<title>schedule_hrtimeout_range_clock (42 samples, 64.62%)</title><rect x="373.1" y="165" width="762.4" height="15.0" fill="rgb(223,143,10)" rx="2" ry="2" />
<text  x="376.08" y="175.5" >schedule_hrtimeout_range_clock</text>
</g>
<g >
<title>load_balance (6 samples, 9.23%)</title><rect x="1026.6" y="101" width="108.9" height="15.0" fill="rgb(232,38,3)" rx="2" ry="2" />
<text  x="1029.62" y="111.5" >load_balance</text>
</g>
<g >
<title>do_task_stat (4 samples, 6.15%)</title><rect x="137.1" y="101" width="72.6" height="15.0" fill="rgb(227,36,43)" rx="2" ry="2" />
<text  x="140.08" y="111.5" >do_task_..</text>
</g>
<g >
<title>all (65 samples, 100%)</title><rect x="10.0" y="293" width="1180.0" height="15.0" fill="rgb(248,71,10)" rx="2" ry="2" />
<text  x="13.00" y="303.5" ></text>
</g>
<g >
<title>dequeue_task_fair (1 samples, 1.54%)</title><rect x="409.4" y="101" width="18.1" height="15.0" fill="rgb(248,183,27)" rx="2" ry="2" />
<text  x="412.38" y="111.5" ></text>
</g>
<g >
<title>timerqueue_add (1 samples, 1.54%)</title><rect x="373.1" y="117" width="18.1" height="15.0" fill="rgb(222,41,31)" rx="2" ry="2" />
<text  x="376.08" y="127.5" ></text>
</g>
<g >
<title>__vsnprintf_chk (1 samples, 1.54%)</title><rect x="354.9" y="261" width="18.2" height="15.0" fill="rgb(252,223,33)" rx="2" ry="2" />
<text  x="357.92" y="271.5" ></text>
</g>
<g >
<title>__intel_pmu_enable_all.constprop.23 (32 samples, 49.23%)</title><rect x="427.5" y="53" width="581.0" height="15.0" fill="rgb(207,8,15)" rx="2" ry="2" />
<text  x="430.54" y="63.5" >__intel_pmu_enable_all.constprop.23</text>
</g>
<g >
<title>__perf_event_task_sched_in (33 samples, 50.77%)</title><rect x="427.5" y="101" width="599.1" height="15.0" fill="rgb(230,57,28)" rx="2" ry="2" />
<text  x="430.54" y="111.5" >__perf_event_task_sched_in</text>
</g>
<g >
<title>__vfs_read (5 samples, 7.69%)</title><rect x="118.9" y="165" width="90.8" height="15.0" fill="rgb(222,151,14)" rx="2" ry="2" />
<text  x="121.92" y="175.5" >__vfs_read</text>
</g>
<g >
<title>enqueue_hrtimer (1 samples, 1.54%)</title><rect x="373.1" y="133" width="18.1" height="15.0" fill="rgb(211,165,52)" rx="2" ry="2" />
<text  x="376.08" y="143.5" ></text>
</g>
<g >
<title>get_empty_filp (2 samples, 3.08%)</title><rect x="227.8" y="149" width="36.4" height="15.0" fill="rgb(232,168,45)" rx="2" ry="2" />
<text  x="230.85" y="159.5" >get..</text>
</g>
<g >
<title>seq_put_decimal_ull (1 samples, 1.54%)</title><rect x="191.5" y="85" width="18.2" height="15.0" fill="rgb(217,228,29)" rx="2" ry="2" />
<text  x="194.54" y="95.5" ></text>
</g>
<g >
<title>intel_pmu_handle_irq (1 samples, 1.54%)</title><rect x="500.2" y="37" width="18.1" height="15.0" fill="rgb(208,189,54)" rx="2" ry="2" />
<text  x="503.15" y="47.5" ></text>
</g>
<g >
<title>set_normalized_timespec64 (1 samples, 1.54%)</title><rect x="1135.5" y="165" width="18.2" height="15.0" fill="rgb(241,185,13)" rx="2" ry="2" />
<text  x="1138.54" y="175.5" ></text>
</g>
<g >
<title>__check_heap_object (1 samples, 1.54%)</title><rect x="318.6" y="117" width="18.2" height="15.0" fill="rgb(229,50,54)" rx="2" ry="2" />
<text  x="321.62" y="127.5" ></text>
</g>
<g >
<title>_raw_spin_lock_irqsave (2 samples, 3.08%)</title><rect x="155.2" y="69" width="36.3" height="15.0" fill="rgb(250,156,35)" rx="2" ry="2" />
<text  x="158.23" y="79.5" >_ra..</text>
</g>
<g >
<title>intel_pmu_enable_all (33 samples, 50.77%)</title><rect x="427.5" y="69" width="599.1" height="15.0" fill="rgb(235,190,24)" rx="2" ry="2" />
<text  x="430.54" y="79.5" >intel_pmu_enable_all</text>
</g>
<g >
<title>mutex_unlock (1 samples, 1.54%)</title><rect x="118.9" y="133" width="18.2" height="15.0" fill="rgb(234,1,2)" rx="2" ry="2" />
<text  x="121.92" y="143.5" ></text>
</g>
<g >
<title>entry_SYSCALL_64_after_hwframe (5 samples, 7.69%)</title><rect x="118.9" y="229" width="90.8" height="15.0" fill="rgb(214,63,29)" rx="2" ry="2" />
<text  x="121.92" y="239.5" >entry_SYSC..</text>
</g>
<g >
<title>lookup_fast (2 samples, 3.08%)</title><rect x="282.3" y="117" width="36.3" height="15.0" fill="rgb(207,222,38)" rx="2" ry="2" />
<text  x="285.31" y="127.5" >loo..</text>
</g>
<g >
<title>do_dentry_open (1 samples, 1.54%)</title><rect x="209.7" y="149" width="18.1" height="15.0" fill="rgb(222,200,24)" rx="2" ry="2" />
<text  x="212.69" y="159.5" ></text>
</g>
<g >
<title>sys_openat (7 samples, 10.77%)</title><rect x="209.7" y="213" width="127.1" height="15.0" fill="rgb(237,17,24)" rx="2" ry="2" />
<text  x="212.69" y="223.5" >sys_openat</text>
</g>
<g >
<title>num_to_str (1 samples, 1.54%)</title><rect x="191.5" y="69" width="18.2" height="15.0" fill="rgb(248,76,11)" rx="2" ry="2" />
<text  x="194.54" y="79.5" ></text>
</g>
<g >
<title>__open64 (8 samples, 12.31%)</title><rect x="209.7" y="261" width="145.2" height="15.0" fill="rgb(214,149,2)" rx="2" ry="2" />
<text  x="212.69" y="271.5" >__open64</text>
</g>
<g >
<title>link_path_walk (3 samples, 4.62%)</title><rect x="264.2" y="149" width="54.4" height="15.0" fill="rgb(206,174,23)" rx="2" ry="2" />
<text  x="267.15" y="159.5" >link_..</text>
</g>
<g >
<title>pick_next_task_fair (6 samples, 9.23%)</title><rect x="1026.6" y="117" width="108.9" height="15.0" fill="rgb(209,83,35)" rx="2" ry="2" />
<text  x="1029.62" y="127.5" >pick_next_tas..</text>
</g>
<g >
<title>getname_flags (1 samples, 1.54%)</title><rect x="318.6" y="165" width="18.2" height="15.0" fill="rgb(240,55,49)" rx="2" ry="2" />
<text  x="321.62" y="175.5" ></text>
</g>
<g >
<title>do_syscall_64 (45 samples, 69.23%)</title><rect x="373.1" y="229" width="816.9" height="15.0" fill="rgb(253,214,22)" rx="2" ry="2" />
<text  x="376.08" y="239.5" >do_syscall_64</text>
</g>
<g >
<title>__sched_text_start (40 samples, 61.54%)</title><rect x="409.4" y="133" width="726.1" height="15.0" fill="rgb(229,133,18)" rx="2" ry="2" />
<text  x="412.38" y="143.5" >__sched_text_start</text>
</g>
<g >
<title>native_sched_clock (2 samples, 3.08%)</title><rect x="518.3" y="37" width="36.3" height="15.0" fill="rgb(241,156,3)" rx="2" ry="2" />
<text  x="521.31" y="47.5" >nat..</text>
</g>
<g >
<title>cpumask_next_and (1 samples, 1.54%)</title><rect x="1117.4" y="69" width="18.1" height="15.0" fill="rgb(250,86,11)" rx="2" ry="2" />
<text  x="1120.38" y="79.5" ></text>
</g>
<g >
<title>sys_openat (1 samples, 1.54%)</title><rect x="336.8" y="229" width="18.1" height="15.0" fill="rgb(227,130,8)" rx="2" ry="2" />
<text  x="339.77" y="239.5" ></text>
</g>
<g >
<title>finish_task_switch (33 samples, 50.77%)</title><rect x="427.5" y="117" width="599.1" height="15.0" fill="rgb(223,86,0)" rx="2" ry="2" />
<text  x="430.54" y="127.5" >finish_task_switch</text>
</g>
</g>
</svg>
