<?xml version="1.0" standalone="no"?>
<!DOCTYPE svg PUBLIC "-//W3C//DTD SVG 1.1//EN" "http://www.w3.org/Graphics/SVG/1.1/DTD/svg11.dtd">
<svg version="1.1" width="1200" height="342" onload="init(evt)" viewBox="0 0 1200 342" xmlns="http://www.w3.org/2000/svg" xmlns:xlink="http://www.w3.org/1999/xlink">
<!-- Flame graph stack visualization. See https://github.com/brendangregg/FlameGraph for latest version, and http://www.brendangregg.com/flamegraphs.html for examples. -->
<!-- NOTES:  -->
<defs>
	<linearGradient id="background" y1="0" y2="1" x1="0" x2="0" >
		<stop stop-color="#eeeeee" offset="5%" />
		<stop stop-color="#eeeeb0" offset="95%" />
	</linearGradient>
</defs>
<style type="text/css">
	text { font-family:Verdana; font-size:12px; fill:rgb(0,0,0); }
	#search, #ignorecase { opacity:0.1; cursor:pointer; }
	#search:hover, #search.show, #ignorecase:hover, #ignorecase.show { opacity:1; }
	#subtitle { text-anchor:middle; font-color:rgb(160,160,160); }
	#title { text-anchor:middle; font-size:17px}
	#unzoom { cursor:pointer; }
	#frames > *:hover { stroke:black; stroke-width:0.5; cursor:pointer; }
	.hide { display:none; }
	.parent { opacity:0.5; }
</style>
<script type="text/ecmascript">
<![CDATA[
	"use strict";
	var details, searchbtn, unzoombtn, matchedtxt, svg, searching, currentSearchTerm, ignorecase, ignorecaseBtn;
	function init(evt) {
		details = document.getElementById("details").firstChild;
		searchbtn = document.getElementById("search");
		ignorecaseBtn = document.getElementById("ignorecase");
		unzoombtn = document.getElementById("unzoom");
		matchedtxt = document.getElementById("matched");
		svg = document.getElementsByTagName("svg")[0];
		searching = 0;
		currentSearchTerm = null;
	}

	window.addEventListener("click", function(e) {
		var target = find_group(e.target);
		if (target) {
			if (target.nodeName == "a") {
				if (e.ctrlKey === false) return;
				e.preventDefault();
			}
			if (target.classList.contains("parent")) unzoom();
			zoom(target);
		}
		else if (e.target.id == "unzoom") unzoom();
		else if (e.target.id == "search") search_prompt();
		else if (e.target.id == "ignorecase") toggle_ignorecase();
	}, false)

	// mouse-over for info
	// show
	window.addEventListener("mouseover", function(e) {
		var target = find_group(e.target);
		if (target) details.nodeValue = "Function: " + g_to_text(target);
	}, false)

	// clear
	window.addEventListener("mouseout", function(e) {
		var target = find_group(e.target);
		if (target) details.nodeValue = ' ';
	}, false)

	// ctrl-F for search
	window.addEventListener("keydown",function (e) {
		if (e.keyCode === 114 || (e.ctrlKey && e.keyCode === 70)) {
			e.preventDefault();
			search_prompt();
		}
	}, false)

	// ctrl-I to toggle case-sensitive search
	window.addEventListener("keydown",function (e) {
		if (e.ctrlKey && e.keyCode === 73) {
			e.preventDefault();
			toggle_ignorecase();
		}
	}, false)

	// functions
	function find_child(node, selector) {
		var children = node.querySelectorAll(selector);
		if (children.length) return children[0];
		return;
	}
	function find_group(node) {
		var parent = node.parentElement;
		if (!parent) return;
		if (parent.id == "frames") return node;
		return find_group(parent);
	}
	function orig_save(e, attr, val) {
		if (e.attributes["_orig_" + attr] != undefined) return;
		if (e.attributes[attr] == undefined) return;
		if (val == undefined) val = e.attributes[attr].value;
		e.setAttribute("_orig_" + attr, val);
	}
	function orig_load(e, attr) {
		if (e.attributes["_orig_"+attr] == undefined) return;
		e.attributes[attr].value = e.attributes["_orig_" + attr].value;
		e.removeAttribute("_orig_"+attr);
	}
	function g_to_text(e) {
		var text = find_child(e, "title").firstChild.nodeValue;
		return (text)
	}
	function g_to_func(e) {
		var func = g_to_text(e);
		// if there's any manipulation we want to do to the function
		// name before it's searched, do it here before returning.
		return (func);
	}
	function update_text(e) {
		var r = find_child(e, "rect");
		var t = find_child(e, "text");
		var w = parseFloat(r.attributes.width.value) -3;
		var txt = find_child(e, "title").textContent.replace(/\([^(]*\)$/,"");
		t.attributes.x.value = parseFloat(r.attributes.x.value) + 3;

		// Smaller than this size won't fit anything
		if (w < 2 * 12 * 0.59) {
			t.textContent = "";
			return;
		}

		t.textContent = txt;
		// Fit in full text width
		if (/^ *$/.test(txt) || t.getSubStringLength(0, txt.length) < w)
			return;

		for (var x = txt.length - 2; x > 0; x--) {
			if (t.getSubStringLength(0, x + 2) <= w) {
				t.textContent = txt.substring(0, x) + "..";
				return;
			}
		}
		t.textContent = "";
	}

	// zoom
	function zoom_reset(e) {
		if (e.attributes != undefined) {
			orig_load(e, "x");
			orig_load(e, "width");
		}
		if (e.childNodes == undefined) return;
		for (var i = 0, c = e.childNodes; i < c.length; i++) {
			zoom_reset(c[i]);
		}
	}
	function zoom_child(e, x, ratio) {
		if (e.attributes != undefined) {
			if (e.attributes.x != undefined) {
				orig_save(e, "x");
				e.attributes.x.value = (parseFloat(e.attributes.x.value) - x - 10) * ratio + 10;
				if (e.tagName == "text")
					e.attributes.x.value = find_child(e.parentNode, "rect[x]").attributes.x.value + 3;
			}
			if (e.attributes.width != undefined) {
				orig_save(e, "width");
				e.attributes.width.value = parseFloat(e.attributes.width.value) * ratio;
			}
		}

		if (e.childNodes == undefined) return;
		for (var i = 0, c = e.childNodes; i < c.length; i++) {
			zoom_child(c[i], x - 10, ratio);
		}
	}
	function zoom_parent(e) {
		if (e.attributes) {
			if (e.attributes.x != undefined) {
				orig_save(e, "x");
				e.attributes.x.value = 10;
			}
			if (e.attributes.width != undefined) {
				orig_save(e, "width");
				e.attributes.width.value = parseInt(svg.width.baseVal.value) - (10 * 2);
			}
		}
		if (e.childNodes == undefined) return;
		for (var i = 0, c = e.childNodes; i < c.length; i++) {
			zoom_parent(c[i]);
		}
	}
	function zoom(node) {
		var attr = find_child(node, "rect").attributes;
		var width = parseFloat(attr.width.value);
		var xmin = parseFloat(attr.x.value);
		var xmax = parseFloat(xmin + width);
		var ymin = parseFloat(attr.y.value);
		var ratio = (svg.width.baseVal.value - 2 * 10) / width;

		// XXX: Workaround for JavaScript float issues (fix me)
		var fudge = 0.0001;

		unzoombtn.classList.remove("hide");

		var el = document.getElementById("frames").children;
		for (var i = 0; i < el.length; i++) {
			var e = el[i];
			var a = find_child(e, "rect").attributes;
			var ex = parseFloat(a.x.value);
			var ew = parseFloat(a.width.value);
			var upstack;
			// Is it an ancestor
			if (0 == 0) {
				upstack = parseFloat(a.y.value) > ymin;
			} else {
				upstack = parseFloat(a.y.value) < ymin;
			}
			if (upstack) {
				// Direct ancestor
				if (ex <= xmin && (ex+ew+fudge) >= xmax) {
					e.classList.add("parent");
					zoom_parent(e);
					update_text(e);
				}
				// not in current path
				else
					e.classList.add("hide");
			}
			// Children maybe
			else {
				// no common path
				if (ex < xmin || ex + fudge >= xmax) {
					e.classList.add("hide");
				}
				else {
					zoom_child(e, xmin, ratio);
					update_text(e);
				}
			}
		}
		search();
	}
	function unzoom() {
		unzoombtn.classList.add("hide");
		var el = document.getElementById("frames").children;
		for(var i = 0; i < el.length; i++) {
			el[i].classList.remove("parent");
			el[i].classList.remove("hide");
			zoom_reset(el[i]);
			update_text(el[i]);
		}
		search();
	}

	// search
	function toggle_ignorecase() {
		ignorecase = !ignorecase;
		if (ignorecase) {
			ignorecaseBtn.classList.add("show");
		} else {
			ignorecaseBtn.classList.remove("show");
		}
		reset_search();
		search();
	}
	function reset_search() {
		var el = document.querySelectorAll("#frames rect");
		for (var i = 0; i < el.length; i++) {
			orig_load(el[i], "fill")
		}
	}
	function search_prompt() {
		if (!searching) {
			var term = prompt("Enter a search term (regexp " +
			    "allowed, eg: ^ext4_)"
			    + (ignorecase ? ", ignoring case" : "")
			    + "\nPress Ctrl-i to toggle case sensitivity", "");
			if (term != null) {
				currentSearchTerm = term;
				search();
			}
		} else {
			reset_search();
			searching = 0;
			currentSearchTerm = null;
			searchbtn.classList.remove("show");
			searchbtn.firstChild.nodeValue = "Search"
			matchedtxt.classList.add("hide");
			matchedtxt.firstChild.nodeValue = ""
		}
	}
	function search(term) {
		if (currentSearchTerm === null) return;
		var term = currentSearchTerm;

		var re = new RegExp(term, ignorecase ? 'i' : '');
		var el = document.getElementById("frames").children;
		var matches = new Object();
		var maxwidth = 0;
		for (var i = 0; i < el.length; i++) {
			var e = el[i];
			var func = g_to_func(e);
			var rect = find_child(e, "rect");
			if (func == null || rect == null)
				continue;

			// Save max width. Only works as we have a root frame
			var w = parseFloat(rect.attributes.width.value);
			if (w > maxwidth)
				maxwidth = w;

			if (func.match(re)) {
				// highlight
				var x = parseFloat(rect.attributes.x.value);
				orig_save(rect, "fill");
				rect.attributes.fill.value = "rgb(230,0,230)";

				// remember matches
				if (matches[x] == undefined) {
					matches[x] = w;
				} else {
					if (w > matches[x]) {
						// overwrite with parent
						matches[x] = w;
					}
				}
				searching = 1;
			}
		}
		if (!searching)
			return;

		searchbtn.classList.add("show");
		searchbtn.firstChild.nodeValue = "Reset Search";

		// calculate percent matched, excluding vertical overlap
		var count = 0;
		var lastx = -1;
		var lastw = 0;
		var keys = Array();
		for (k in matches) {
			if (matches.hasOwnProperty(k))
				keys.push(k);
		}
		// sort the matched frames by their x location
		// ascending, then width descending
		keys.sort(function(a, b){
			return a - b;
		});
		// Step through frames saving only the biggest bottom-up frames
		// thanks to the sort order. This relies on the tree property
		// where children are always smaller than their parents.
		var fudge = 0.0001;	// JavaScript floating point
		for (var k in keys) {
			var x = parseFloat(keys[k]);
			var w = matches[keys[k]];
			if (x >= lastx + lastw - fudge) {
				count += w;
				lastx = x;
				lastw = w;
			}
		}
		// display matched percent
		matchedtxt.classList.remove("hide");
		var pct = 100 * count / maxwidth;
		if (pct != 100) pct = pct.toFixed(1)
		matchedtxt.firstChild.nodeValue = "Matched: " + pct + "%";
	}
]]>
</script>
<rect x="0.0" y="0" width="1200.0" height="342.0" fill="url(#background)"  />
<text id="title" x="600.00" y="24" >Flame Graph</text>
<text id="details" x="10.00" y="325" > </text>
<text id="unzoom" x="10.00" y="24" class="hide">Reset Zoom</text>
<text id="search" x="1090.00" y="24" >Search</text>
<text id="ignorecase" x="1174.00" y="24" >ic</text>
<text id="matched" x="1090.00" y="325" > </text>
<g id="frames">
<g >
<title>do_syscall_64 (12 samples, 16.67%)</title><rect x="26.4" y="213" width="196.7" height="15.0" fill="rgb(249,41,22)" rx="2" ry="2" />
<text  x="29.39" y="223.5" >do_syscall_64</text>
</g>
<g >
<title>putname (1 samples, 1.39%)</title><rect x="485.3" y="181" width="16.4" height="15.0" fill="rgb(211,102,37)" rx="2" ry="2" />
<text  x="488.28" y="191.5" ></text>
</g>
<g >
<title>do_sys_open (11 samples, 15.28%)</title><rect x="321.4" y="197" width="180.3" height="15.0" fill="rgb(224,193,37)" rx="2" ry="2" />
<text  x="324.39" y="207.5" >do_sys_open</text>
</g>
<g >
<title>security_file_alloc (2 samples, 2.78%)</title><rect x="386.9" y="133" width="32.8" height="15.0" fill="rgb(209,44,23)" rx="2" ry="2" />
<text  x="389.94" y="143.5" >se..</text>
</g>
<g >
<title>__indirect_thunk_start (1 samples, 1.39%)</title><rect x="649.2" y="133" width="16.4" height="15.0" fill="rgb(218,98,10)" rx="2" ry="2" />
<text  x="652.17" y="143.5" ></text>
</g>
<g >
<title>__fput (1 samples, 1.39%)</title><rect x="223.1" y="165" width="16.3" height="15.0" fill="rgb(244,149,42)" rx="2" ry="2" />
<text  x="226.06" y="175.5" ></text>
</g>
<g >
<title>vfs_open (1 samples, 1.39%)</title><rect x="468.9" y="149" width="16.4" height="15.0" fill="rgb(206,192,28)" rx="2" ry="2" />
<text  x="471.89" y="159.5" ></text>
</g>
<g >
<title>__vsnprintf_chk (2 samples, 2.78%)</title><rect x="518.1" y="261" width="32.7" height="15.0" fill="rgb(209,149,14)" rx="2" ry="2" />
<text  x="521.06" y="271.5" >__..</text>
</g>
<g >
<title>update_curr (1 samples, 1.39%)</title><rect x="698.3" y="85" width="16.4" height="15.0" fill="rgb(228,72,30)" rx="2" ry="2" />
<text  x="701.33" y="95.5" ></text>
</g>
<g >
<title>idle_cpu (1 samples, 1.39%)</title><rect x="1124.4" y="69" width="16.4" height="15.0" fill="rgb(231,227,6)" rx="2" ry="2" />
<text  x="1127.44" y="79.5" ></text>
</g>
<g >
<title>intel_pmu_enable_all (18 samples, 25.00%)</title><rect x="714.7" y="69" width="295.0" height="15.0" fill="rgb(212,174,52)" rx="2" ry="2" />
<text  x="717.72" y="79.5" >intel_pmu_enable_all</text>
</g>
<g >
<title>put_dec_trunc8 (1 samples, 1.39%)</title><rect x="157.5" y="37" width="16.4" height="15.0" fill="rgb(242,114,46)" rx="2" ry="2" />
<text  x="160.50" y="47.5" ></text>
</g>
<g >
<title>tty_get_pgrp (1 samples, 1.39%)</title><rect x="206.7" y="85" width="16.4" height="15.0" fill="rgb(216,31,22)" rx="2" ry="2" />
<text  x="209.67" y="95.5" ></text>
</g>
<g >
<title>pick_next_task_fair (10 samples, 13.89%)</title><rect x="1009.7" y="117" width="163.9" height="15.0" fill="rgb(254,12,9)" rx="2" ry="2" />
<text  x="1012.72" y="127.5" >pick_next_task_fair</text>
</g>
<g >
<title>serverCron (1 samples, 1.39%)</title><rect x="1173.6" y="261" width="16.4" height="15.0" fill="rgb(210,166,14)" rx="2" ry="2" />
<text  x="1176.61" y="271.5" ></text>
</g>
<g >
<title>do_syscall_64 (4 samples, 5.56%)</title><rect x="223.1" y="229" width="65.5" height="15.0" fill="rgb(238,181,5)" rx="2" ry="2" />
<text  x="226.06" y="239.5" >do_sysc..</text>
</g>
<g >
<title>apparmor_file_alloc_security (2 samples, 2.78%)</title><rect x="386.9" y="117" width="32.8" height="15.0" fill="rgb(250,173,28)" rx="2" ry="2" />
<text  x="389.94" y="127.5" >ap..</text>
</g>
<g >
<title>__getpagesize (1 samples, 1.39%)</title><rect x="288.6" y="261" width="16.4" height="15.0" fill="rgb(220,150,33)" rx="2" ry="2" />
<text  x="291.61" y="271.5" ></text>
</g>
<g >
<title>entry_SYSCALL_64_after_hwframe (12 samples, 16.67%)</title><rect x="26.4" y="229" width="196.7" height="15.0" fill="rgb(229,71,3)" rx="2" ry="2" />
<text  x="29.39" y="239.5" >entry_SYSCALL_64_after_hw..</text>
</g>
<g >
<title>__close_fd (2 samples, 2.78%)</title><rect x="255.8" y="197" width="32.8" height="15.0" fill="rgb(215,111,30)" rx="2" ry="2" />
<text  x="258.83" y="207.5" >__..</text>
</g>
<g >
<title>all (72 samples, 100%)</title><rect x="10.0" y="293" width="1180.0" height="15.0" fill="rgb(226,2,20)" rx="2" ry="2" />
<text  x="13.00" y="303.5" ></text>
</g>
<g >
<title>walk_component (1 samples, 1.39%)</title><rect x="436.1" y="133" width="16.4" height="15.0" fill="rgb(248,146,23)" rx="2" ry="2" />
<text  x="439.11" y="143.5" ></text>
</g>
<g >
<title>do_syscall_64 (1 samples, 1.39%)</title><rect x="305.0" y="229" width="16.4" height="15.0" fill="rgb(234,89,37)" rx="2" ry="2" />
<text  x="308.00" y="239.5" ></text>
</g>
<g >
<title>load_balance (7 samples, 9.72%)</title><rect x="1026.1" y="101" width="114.7" height="15.0" fill="rgb(247,86,39)" rx="2" ry="2" />
<text  x="1029.11" y="111.5" >load_balance</text>
</g>
<g >
<title>num_to_str (2 samples, 2.78%)</title><rect x="141.1" y="69" width="32.8" height="15.0" fill="rgb(234,226,17)" rx="2" ry="2" />
<text  x="144.11" y="79.5" >nu..</text>
</g>
<g >
<title>__vdso_gettimeofday (1 samples, 1.39%)</title><rect x="550.8" y="245" width="16.4" height="15.0" fill="rgb(228,53,31)" rx="2" ry="2" />
<text  x="553.83" y="255.5" ></text>
</g>
<g >
<title>do_dentry_open (1 samples, 1.39%)</title><rect x="468.9" y="133" width="16.4" height="15.0" fill="rgb(214,66,29)" rx="2" ry="2" />
<text  x="471.89" y="143.5" ></text>
</g>
<g >
<title>__libc_read (12 samples, 16.67%)</title><rect x="26.4" y="245" width="196.7" height="15.0" fill="rgb(242,166,2)" rx="2" ry="2" />
<text  x="29.39" y="255.5" >__libc_read</text>
</g>
<g >
<title>x86_pmu_enable (18 samples, 25.00%)</title><rect x="714.7" y="85" width="295.0" height="15.0" fill="rgb(212,140,36)" rx="2" ry="2" />
<text  x="717.72" y="95.5" >x86_pmu_enable</text>
</g>
<g >
<title>__getpid (1 samples, 1.39%)</title><rect x="305.0" y="261" width="16.4" height="15.0" fill="rgb(254,102,33)" rx="2" ry="2" />
<text  x="308.00" y="271.5" ></text>
</g>
<g >
<title>memcpy_erms (2 samples, 2.78%)</title><rect x="75.6" y="85" width="32.7" height="15.0" fill="rgb(231,72,25)" rx="2" ry="2" />
<text  x="78.56" y="95.5" >me..</text>
</g>
<g >
<title>ghes_notify_nmi (1 samples, 1.39%)</title><rect x="731.1" y="37" width="16.4" height="15.0" fill="rgb(231,148,38)" rx="2" ry="2" />
<text  x="734.11" y="47.5" ></text>
</g>
<g >
<title>_raw_spin_lock (1 samples, 1.39%)</title><rect x="255.8" y="181" width="16.4" height="15.0" fill="rgb(248,77,16)" rx="2" ry="2" />
<text  x="258.83" y="191.5" ></text>
</g>
<g >
<title>__sched_text_start (31 samples, 43.06%)</title><rect x="665.6" y="133" width="508.0" height="15.0" fill="rgb(225,163,13)" rx="2" ry="2" />
<text  x="668.56" y="143.5" >__sched_text_start</text>
</g>
<g >
<title>sys_getpid (1 samples, 1.39%)</title><rect x="305.0" y="213" width="16.4" height="15.0" fill="rgb(225,11,37)" rx="2" ry="2" />
<text  x="308.00" y="223.5" ></text>
</g>
<g >
<title>sys_epoll_wait (33 samples, 45.83%)</title><rect x="632.8" y="213" width="540.8" height="15.0" fill="rgb(254,128,13)" rx="2" ry="2" />
<text  x="635.78" y="223.5" >sys_epoll_wait</text>
</g>
<g >
<title>native_write_msr (12 samples, 16.67%)</title><rect x="796.7" y="37" width="196.6" height="15.0" fill="rgb(218,87,12)" rx="2" ry="2" />
<text  x="799.67" y="47.5" >native_write_msr</text>
</g>
<g >
<title>kmem_cache_free (1 samples, 1.39%)</title><rect x="485.3" y="165" width="16.4" height="15.0" fill="rgb(254,116,16)" rx="2" ry="2" />
<text  x="488.28" y="175.5" ></text>
</g>
<g >
<title>kmem_cache_alloc (3 samples, 4.17%)</title><rect x="337.8" y="133" width="49.1" height="15.0" fill="rgb(215,42,26)" rx="2" ry="2" />
<text  x="340.78" y="143.5" >kmem..</text>
</g>
<g >
<title>__intel_pmu_enable_all.constprop.23 (18 samples, 25.00%)</title><rect x="714.7" y="53" width="295.0" height="15.0" fill="rgb(247,36,3)" rx="2" ry="2" />
<text  x="717.72" y="63.5" >__intel_pmu_enable_all.constprop.23</text>
</g>
<g >
<title>seq_printf (1 samples, 1.39%)</title><rect x="108.3" y="85" width="16.4" height="15.0" fill="rgb(208,17,39)" rx="2" ry="2" />
<text  x="111.33" y="95.5" ></text>
</g>
<g >
<title>fput (1 samples, 1.39%)</title><rect x="616.4" y="213" width="16.4" height="15.0" fill="rgb(240,102,42)" rx="2" ry="2" />
<text  x="619.39" y="223.5" ></text>
</g>
<g >
<title>sys_openat (11 samples, 15.28%)</title><rect x="321.4" y="213" width="180.3" height="15.0" fill="rgb(222,152,41)" rx="2" ry="2" />
<text  x="324.39" y="223.5" >sys_openat</text>
</g>
<g >
<title>default_do_nmi (1 samples, 1.39%)</title><rect x="714.7" y="37" width="16.4" height="15.0" fill="rgb(254,190,3)" rx="2" ry="2" />
<text  x="717.72" y="47.5" ></text>
</g>
<g >
<title>smp_apic_timer_interrupt (1 samples, 1.39%)</title><rect x="223.1" y="101" width="16.3" height="15.0" fill="rgb(245,94,29)" rx="2" ry="2" />
<text  x="226.06" y="111.5" ></text>
</g>
<g >
<title>update_blocked_averages (2 samples, 2.78%)</title><rect x="1140.8" y="101" width="32.8" height="15.0" fill="rgb(212,178,13)" rx="2" ry="2" />
<text  x="1143.83" y="111.5" >up..</text>
</g>
<g >
<title>schedule_hrtimeout_range_clock (32 samples, 44.44%)</title><rect x="649.2" y="165" width="524.4" height="15.0" fill="rgb(217,183,16)" rx="2" ry="2" />
<text  x="652.17" y="175.5" >schedule_hrtimeout_range_clock</text>
</g>
<g >
<title>____fput (1 samples, 1.39%)</title><rect x="223.1" y="181" width="16.3" height="15.0" fill="rgb(232,221,44)" rx="2" ry="2" />
<text  x="226.06" y="191.5" ></text>
</g>
<g >
<title>dequeue_entity (1 samples, 1.39%)</title><rect x="681.9" y="85" width="16.4" height="15.0" fill="rgb(229,89,4)" rx="2" ry="2" />
<text  x="684.94" y="95.5" ></text>
</g>
<g >
<title>__vfs_read (11 samples, 15.28%)</title><rect x="42.8" y="165" width="180.3" height="15.0" fill="rgb(220,28,16)" rx="2" ry="2" />
<text  x="45.78" y="175.5" >__vfs_read</text>
</g>
<g >
<title>exit_to_usermode_loop (2 samples, 2.78%)</title><rect x="223.1" y="213" width="32.7" height="15.0" fill="rgb(246,10,40)" rx="2" ry="2" />
<text  x="226.06" y="223.5" >ex..</text>
</g>
<g >
<title>_raw_spin_lock_irqsave (1 samples, 1.39%)</title><rect x="1157.2" y="85" width="16.4" height="15.0" fill="rgb(216,203,37)" rx="2" ry="2" />
<text  x="1160.22" y="95.5" ></text>
</g>
<g >
<title>__task_pid_nr_ns (1 samples, 1.39%)</title><rect x="59.2" y="85" width="16.4" height="15.0" fill="rgb(216,171,45)" rx="2" ry="2" />
<text  x="62.17" y="95.5" ></text>
</g>
<g >
<title>memcpy_erms (1 samples, 1.39%)</title><rect x="108.3" y="53" width="16.4" height="15.0" fill="rgb(252,216,52)" rx="2" ry="2" />
<text  x="111.33" y="63.5" ></text>
</g>
<g >
<title>single_release (1 samples, 1.39%)</title><rect x="223.1" y="149" width="16.3" height="15.0" fill="rgb(226,195,22)" rx="2" ry="2" />
<text  x="226.06" y="159.5" ></text>
</g>
<g >
<title>ktime_get_update_offsets_now (1 samples, 1.39%)</title><rect x="223.1" y="69" width="16.3" height="15.0" fill="rgb(238,190,53)" rx="2" ry="2" />
<text  x="226.06" y="79.5" ></text>
</g>
<g >
<title>nmi_cpu_backtrace (1 samples, 1.39%)</title><rect x="993.3" y="37" width="16.4" height="15.0" fill="rgb(236,215,43)" rx="2" ry="2" />
<text  x="996.33" y="47.5" ></text>
</g>
<g >
<title>sys_read (12 samples, 16.67%)</title><rect x="26.4" y="197" width="196.7" height="15.0" fill="rgb(229,53,41)" rx="2" ry="2" />
<text  x="29.39" y="207.5" >sys_read</text>
</g>
<g >
<title>deactivate_task (2 samples, 2.78%)</title><rect x="681.9" y="117" width="32.8" height="15.0" fill="rgb(228,73,38)" rx="2" ry="2" />
<text  x="684.94" y="127.5" >de..</text>
</g>
<g >
<title>[unknown] (1 samples, 1.39%)</title><rect x="10.0" y="245" width="16.4" height="15.0" fill="rgb(210,96,7)" rx="2" ry="2" />
<text  x="13.00" y="255.5" ></text>
</g>
<g >
<title>vfs_read (11 samples, 15.28%)</title><rect x="42.8" y="181" width="180.3" height="15.0" fill="rgb(219,190,47)" rx="2" ry="2" />
<text  x="45.78" y="191.5" >vfs_read</text>
</g>
<g >
<title>ep_poll (32 samples, 44.44%)</title><rect x="649.2" y="197" width="524.4" height="15.0" fill="rgb(226,148,12)" rx="2" ry="2" />
<text  x="652.17" y="207.5" >ep_poll</text>
</g>
<g >
<title>[unknown] (13 samples, 18.06%)</title><rect x="10.0" y="261" width="213.1" height="15.0" fill="rgb(217,67,26)" rx="2" ry="2" />
<text  x="13.00" y="271.5" >[unknown]</text>
</g>
<g >
<title>proc_tgid_stat (11 samples, 15.28%)</title><rect x="42.8" y="117" width="180.3" height="15.0" fill="rgb(213,140,46)" rx="2" ry="2" />
<text  x="45.78" y="127.5" >proc_tgid_stat</text>
</g>
<g >
<title>kfree (1 samples, 1.39%)</title><rect x="223.1" y="133" width="16.3" height="15.0" fill="rgb(227,97,36)" rx="2" ry="2" />
<text  x="226.06" y="143.5" ></text>
</g>
<g >
<title>cpumask_next_and (1 samples, 1.39%)</title><rect x="1108.1" y="69" width="16.3" height="15.0" fill="rgb(235,195,54)" rx="2" ry="2" />
<text  x="1111.06" y="79.5" ></text>
</g>
<g >
<title>put_dec (1 samples, 1.39%)</title><rect x="157.5" y="53" width="16.4" height="15.0" fill="rgb(233,8,47)" rx="2" ry="2" />
<text  x="160.50" y="63.5" ></text>
</g>
<g >
<title>apic_timer_interrupt (1 samples, 1.39%)</title><rect x="223.1" y="117" width="16.3" height="15.0" fill="rgb(211,158,3)" rx="2" ry="2" />
<text  x="226.06" y="127.5" ></text>
</g>
<g >
<title>update_load_avg (1 samples, 1.39%)</title><rect x="681.9" y="69" width="16.4" height="15.0" fill="rgb(241,191,20)" rx="2" ry="2" />
<text  x="684.94" y="79.5" ></text>
</g>
<g >
<title>databasesCron (1 samples, 1.39%)</title><rect x="567.2" y="261" width="16.4" height="15.0" fill="rgb(246,135,40)" rx="2" ry="2" />
<text  x="570.22" y="271.5" ></text>
</g>
<g >
<title>proc_single_show (11 samples, 15.28%)</title><rect x="42.8" y="133" width="180.3" height="15.0" fill="rgb(226,221,9)" rx="2" ry="2" />
<text  x="45.78" y="143.5" >proc_single_show</text>
</g>
<g >
<title>schedule_hrtimeout_range (32 samples, 44.44%)</title><rect x="649.2" y="181" width="524.4" height="15.0" fill="rgb(220,54,34)" rx="2" ry="2" />
<text  x="652.17" y="191.5" >schedule_hrtimeout_range</text>
</g>
<g >
<title>__close (4 samples, 5.56%)</title><rect x="223.1" y="261" width="65.5" height="15.0" fill="rgb(238,143,19)" rx="2" ry="2" />
<text  x="226.06" y="271.5" >__close</text>
</g>
<g >
<title>intel_pmu_handle_irq (2 samples, 2.78%)</title><rect x="747.5" y="37" width="32.8" height="15.0" fill="rgb(234,69,30)" rx="2" ry="2" />
<text  x="750.50" y="47.5" >in..</text>
</g>
<g >
<title>native_sched_clock (1 samples, 1.39%)</title><rect x="780.3" y="37" width="16.4" height="15.0" fill="rgb(242,154,2)" rx="2" ry="2" />
<text  x="783.28" y="47.5" ></text>
</g>
<g >
<title>get_mem_cgroup_from_mm (1 samples, 1.39%)</title><rect x="370.6" y="101" width="16.3" height="15.0" fill="rgb(221,197,13)" rx="2" ry="2" />
<text  x="373.56" y="111.5" ></text>
</g>
<g >
<title>get_empty_filp (5 samples, 6.94%)</title><rect x="337.8" y="149" width="81.9" height="15.0" fill="rgb(221,204,13)" rx="2" ry="2" />
<text  x="340.78" y="159.5" >get_empty..</text>
</g>
<g >
<title>path_openat (9 samples, 12.50%)</title><rect x="337.8" y="165" width="147.5" height="15.0" fill="rgb(213,189,32)" rx="2" ry="2" />
<text  x="340.78" y="175.5" >path_openat</text>
</g>
<g >
<title>entry_SYSCALL_64_after_hwframe (35 samples, 48.61%)</title><rect x="600.0" y="245" width="573.6" height="15.0" fill="rgb(227,11,22)" rx="2" ry="2" />
<text  x="603.00" y="255.5" >entry_SYSCALL_64_after_hwframe</text>
</g>
<g >
<title>do_syscall_64 (11 samples, 15.28%)</title><rect x="321.4" y="229" width="180.3" height="15.0" fill="rgb(216,132,44)" rx="2" ry="2" />
<text  x="324.39" y="239.5" >do_syscall_64</text>
</g>
<g >
<title>task_work_run (2 samples, 2.78%)</title><rect x="223.1" y="197" width="32.7" height="15.0" fill="rgb(243,130,41)" rx="2" ry="2" />
<text  x="226.06" y="207.5" >ta..</text>
</g>
<g >
<title>__open64 (11 samples, 15.28%)</title><rect x="321.4" y="261" width="180.3" height="15.0" fill="rgb(237,123,0)" rx="2" ry="2" />
<text  x="324.39" y="271.5" >__open64</text>
</g>
<g >
<title>inode_permission (1 samples, 1.39%)</title><rect x="419.7" y="133" width="16.4" height="15.0" fill="rgb(207,64,30)" rx="2" ry="2" />
<text  x="422.72" y="143.5" ></text>
</g>
<g >
<title>__vfs_read (1 samples, 1.39%)</title><rect x="26.4" y="181" width="16.4" height="15.0" fill="rgb(213,222,42)" rx="2" ry="2" />
<text  x="29.39" y="191.5" ></text>
</g>
<g >
<title>seq_vprintf (1 samples, 1.39%)</title><rect x="108.3" y="69" width="16.4" height="15.0" fill="rgb(252,158,42)" rx="2" ry="2" />
<text  x="111.33" y="79.5" ></text>
</g>
<g >
<title>vfprintf (1 samples, 1.39%)</title><rect x="534.4" y="245" width="16.4" height="15.0" fill="rgb(233,107,22)" rx="2" ry="2" />
<text  x="537.44" y="255.5" ></text>
</g>
<g >
<title>seq_put_decimal_ull (2 samples, 2.78%)</title><rect x="173.9" y="85" width="32.8" height="15.0" fill="rgb(247,23,17)" rx="2" ry="2" />
<text  x="176.89" y="95.5" >se..</text>
</g>
<g >
<title>__inode_permission (1 samples, 1.39%)</title><rect x="419.7" y="117" width="16.4" height="15.0" fill="rgb(242,160,45)" rx="2" ry="2" />
<text  x="422.72" y="127.5" ></text>
</g>
<g >
<title>hrtimer_interrupt (1 samples, 1.39%)</title><rect x="223.1" y="85" width="16.3" height="15.0" fill="rgb(213,13,24)" rx="2" ry="2" />
<text  x="226.06" y="95.5" ></text>
</g>
<g >
<title>sys_close (2 samples, 2.78%)</title><rect x="255.8" y="213" width="32.8" height="15.0" fill="rgb(250,221,0)" rx="2" ry="2" />
<text  x="258.83" y="223.5" >sy..</text>
</g>
<g >
<title>redis-server (72 samples, 100.00%)</title><rect x="10.0" y="277" width="1180.0" height="15.0" fill="rgb(237,196,49)" rx="2" ry="2" />
<text  x="13.00" y="287.5" >redis-server</text>
</g>
<g >
<title>do_filp_open (10 samples, 13.89%)</title><rect x="321.4" y="181" width="163.9" height="15.0" fill="rgb(235,163,34)" rx="2" ry="2" />
<text  x="324.39" y="191.5" >do_filp_open</text>
</g>
<g >
<title>__d_lookup_rcu (1 samples, 1.39%)</title><rect x="436.1" y="117" width="16.4" height="15.0" fill="rgb(229,119,23)" rx="2" ry="2" />
<text  x="439.11" y="127.5" ></text>
</g>
<g >
<title>do_task_stat (11 samples, 15.28%)</title><rect x="42.8" y="101" width="180.3" height="15.0" fill="rgb(212,63,29)" rx="2" ry="2" />
<text  x="45.78" y="111.5" >do_task_stat</text>
</g>
<g >
<title>entry_SYSCALL_64_after_hwframe (1 samples, 1.39%)</title><rect x="305.0" y="245" width="16.4" height="15.0" fill="rgb(236,211,39)" rx="2" ry="2" />
<text  x="308.00" y="255.5" ></text>
</g>
<g >
<title>memcg_kmem_get_cache (2 samples, 2.78%)</title><rect x="354.2" y="117" width="32.7" height="15.0" fill="rgb(238,95,34)" rx="2" ry="2" />
<text  x="357.17" y="127.5" >me..</text>
</g>
<g >
<title>finish_task_switch (18 samples, 25.00%)</title><rect x="714.7" y="117" width="295.0" height="15.0" fill="rgb(221,74,38)" rx="2" ry="2" />
<text  x="717.72" y="127.5" >finish_task_switch</text>
</g>
<g >
<title>__strchr_avx2 (1 samples, 1.39%)</title><rect x="501.7" y="261" width="16.4" height="15.0" fill="rgb(238,219,53)" rx="2" ry="2" />
<text  x="504.67" y="271.5" ></text>
</g>
<g >
<title>aeProcessEvents (1 samples, 1.39%)</title><rect x="550.8" y="261" width="16.4" height="15.0" fill="rgb(241,52,41)" rx="2" ry="2" />
<text  x="553.83" y="271.5" ></text>
</g>
<g >
<title>proc_pid_permission (1 samples, 1.39%)</title><rect x="419.7" y="101" width="16.4" height="15.0" fill="rgb(214,199,38)" rx="2" ry="2" />
<text  x="422.72" y="111.5" ></text>
</g>
<g >
<title>dequeue_task_fair (2 samples, 2.78%)</title><rect x="681.9" y="101" width="32.8" height="15.0" fill="rgb(212,220,16)" rx="2" ry="2" />
<text  x="684.94" y="111.5" >de..</text>
</g>
<g >
<title>terminate_walk (1 samples, 1.39%)</title><rect x="452.5" y="149" width="16.4" height="15.0" fill="rgb(218,115,27)" rx="2" ry="2" />
<text  x="455.50" y="159.5" ></text>
</g>
<g >
<title>do_syscall_64 (35 samples, 48.61%)</title><rect x="600.0" y="229" width="573.6" height="15.0" fill="rgb(235,173,39)" rx="2" ry="2" />
<text  x="603.00" y="239.5" >do_syscall_64</text>
</g>
<g >
<title>aeProcessEvents (1 samples, 1.39%)</title><rect x="10.0" y="229" width="16.4" height="15.0" fill="rgb(246,227,27)" rx="2" ry="2" />
<text  x="13.00" y="239.5" ></text>
</g>
<g >
<title>__perf_event_task_sched_in (18 samples, 25.00%)</title><rect x="714.7" y="101" width="295.0" height="15.0" fill="rgb(218,127,35)" rx="2" ry="2" />
<text  x="717.72" y="111.5" >__perf_event_task_sched_in</text>
</g>
<g >
<title>link_path_walk (2 samples, 2.78%)</title><rect x="419.7" y="149" width="32.8" height="15.0" fill="rgb(239,95,47)" rx="2" ry="2" />
<text  x="422.72" y="159.5" >li..</text>
</g>
<g >
<title>entry_SYSCALL_64_after_hwframe (4 samples, 5.56%)</title><rect x="223.1" y="245" width="65.5" height="15.0" fill="rgb(239,39,2)" rx="2" ry="2" />
<text  x="226.06" y="255.5" >entry_S..</text>
</g>
<g >
<title>schedule (32 samples, 44.44%)</title><rect x="649.2" y="149" width="524.4" height="15.0" fill="rgb(225,114,6)" rx="2" ry="2" />
<text  x="652.17" y="159.5" >schedule</text>
</g>
<g >
<title>find_busiest_group (7 samples, 9.72%)</title><rect x="1026.1" y="85" width="114.7" height="15.0" fill="rgb(229,60,36)" rx="2" ry="2" />
<text  x="1029.11" y="95.5" >find_busiest_g..</text>
</g>
<g >
<title>_raw_spin_lock_irq (1 samples, 1.39%)</title><rect x="239.4" y="181" width="16.4" height="15.0" fill="rgb(206,211,30)" rx="2" ry="2" />
<text  x="242.44" y="191.5" ></text>
</g>
<g >
<title>epoll_wait (36 samples, 50.00%)</title><rect x="583.6" y="261" width="590.0" height="15.0" fill="rgb(208,6,36)" rx="2" ry="2" />
<text  x="586.61" y="271.5" >epoll_wait</text>
</g>
<g >
<title>seq_put_decimal_ll (3 samples, 4.17%)</title><rect x="124.7" y="85" width="49.2" height="15.0" fill="rgb(248,212,31)" rx="2" ry="2" />
<text  x="127.72" y="95.5" >seq_..</text>
</g>
<g >
<title>seq_read (11 samples, 15.28%)</title><rect x="42.8" y="149" width="180.3" height="15.0" fill="rgb(224,39,16)" rx="2" ry="2" />
<text  x="45.78" y="159.5" >seq_read</text>
</g>
<g >
<title>calloc@plt (1 samples, 1.39%)</title><rect x="518.1" y="245" width="16.3" height="15.0" fill="rgb(206,77,38)" rx="2" ry="2" />
<text  x="521.06" y="255.5" ></text>
</g>
<g >
<title>fput (1 samples, 1.39%)</title><rect x="272.2" y="181" width="16.4" height="15.0" fill="rgb(216,93,43)" rx="2" ry="2" />
<text  x="275.22" y="191.5" ></text>
</g>
<g >
<title>entry_SYSCALL_64_after_hwframe (11 samples, 15.28%)</title><rect x="321.4" y="245" width="180.3" height="15.0" fill="rgb(214,71,46)" rx="2" ry="2" />
<text  x="324.39" y="255.5" >entry_SYSCALL_64_after_..</text>
</g>
</g>
</svg>
